{
  "accessors": [
    {
      "bufferView": 2,
      "componentType": 5126,
      "count": 4354,
      "max": [
        0.22172123193740845,
        0.26293754577636719,
        0.098596200346946716
      ],
      "min": [
        -0.25730308890342712,
        -0.2361024022102356,
        -0.29175847768783569
      ],
      "type": "VEC3"
    },
    {
      "bufferView": 2,
      "byteOffset": 52248,
      "componentType": 5126,
      "count": 4354,
      "max": [
        0.99925744533538818,
        0.9991946816444397,
        1
      ],
      "min": [
        -0.99996703863143921,
        -0.9992450475692749,
        -1
      ],
      "type": "VEC3"
    },
    {
      "bufferView": 3,
      "componentType": 5126,
      "count": 4354,
      "max": [
        0.99994075298309326,
        0.99988019466400146,
        0.99905234575271606,
        1
      ],
      "min": [
        -0.99998801946640015,
        -0.99977284669876099,
        -0.99993377923965454,
        -1
      ],
      "type": "VEC4"
    },
    {
      "bufferView": 1,
      "componentType": 5126,
      "count": 4354,
      "max": [
        0.99923348426818848,
        0.99471092224121094
      ],
      "min": [
        0.0007664338918402791,
        0.0007664338918402791
      ],
      "type": "VEC2"
    },
    {
      "bufferView": 0,
      "componentType": 5125,
      "count": 16767,
      "max": [
        4353
      ],
      "min": [
        0
      ],
      "type": "SCALAR"
    },
    {
      "bufferView": 2,
      "byteOffset": 104496,
      "componentType": 5126,
      "count": 451,
      "max": [
        0.34508022665977478,
        0.34398153424263,
        1.1975886821746826
      ],
      "min": [
        -0.34508022665977478,
        -0.34398153424263,
        0.012405161745846272
      ],
      "type": "VEC3"
    },
    {
      "bufferView": 2,
      "byteOffset": 109908,
      "componentType": 5126,
      "count": 451,
      "max": [
        0.99968284368515015,
        0.99935370683670044,
        1
      ],
      "min": [
        -0.99968284368515015,
        -0.99935370683670044,
        -0.082249321043491364
      ],
      "type": "VEC3"
    },
    {
      "bufferView": 3,
      "byteOffset": 69664,
      "componentType": 5126,
      "count": 451,
      "max": [
        1,
        0.9997096061706543,
        0.68748700618743896,
        1
      ],
      "min": [
        -0.99938452243804932,
        -0.99897706508636475,
        -0.6875452995300293,
        1
      ],
      "type": "VEC4"
    },
    {
      "bufferView": 1,
      "byteOffset": 34832,
      "componentType": 5126,
      "count": 451,
      "max": [
        0.99985218048095703,
        0.87953853607177734
      ],
      "min": [
        0.00014775538875255734,
        0.00014775538875255734
      ],
      "type": "VEC2"
    },
    {
      "bufferView": 0,
      "byteOffset": 67068,
      "componentType": 5125,
      "count": 1572,
      "max": [
        450
      ],
      "min": [
        0
      ],
      "type": "SCALAR"
    }
  ],
  "asset": {
    "extras": {
      "author": "Manuagc (https://sketchfab.com/Manuagc)",
      "license": "CC-BY-4.0 (http://creativecommons.org/licenses/by/4.0/)",
      "source": "https://sketchfab.com/3d-models/plants-are-nice-52704c1bafd44bfd9e98538276ad5614",
      "title": "Plants are nice"
    },
    "generator": "Sketchfab-6.71.0",
    "version": "2.0"
  },
  "bufferViews": [
    {
      "buffer": 0,
      "byteLength": 73356,
      "byteOffset": 0,
      "name": "floatBufferViews",
      "target": 34963
    },
    {
      "buffer": 0,
      "byteLength": 38440,
      "byteOffset": 73356,
      "byteStride": 8,
      "name": "floatBufferViews",
      "target": 34962
    },
    {
      "buffer": 0,
      "byteLength": 115320,
      "byteOffset": 111796,
      "byteStride": 12,
      "name": "floatBufferViews",
      "target": 34962
    },
    {
      "buffer": 0,
      "byteLength": 76880,
      "byteOffset": 227116,
      "byteStride": 16,
      "name": "floatBufferViews",
      "target": 34962
    }
  ],
  "buffers": [
    {
      "byteLength": 303996,
      "uri": "scene.bin"
    }
  ],
  "images": [
    {
      "uri": "textures/pot__0_baseColor.png"
    },
    {
      "uri": "textures/pot__0_metallicRoughness.png"
    },
    {
      "uri": "textures/pot__0_normal.png"
    },
    {
      "uri": "textures/plants_baseColor.png"
    },
    {
      "uri": "textures/plants_metallicRoughness.png"
    },
    {
      "uri": "textures/plants_normal.png"
    }
  ],
  "materials": [
    {
      "doubleSided": true,
      "name": "pot__0",
      "normalTexture": {
        "index": 2,
        "scale": 1,
        "texCoord": 0
      },
      "occlusionTexture": {
        "index": 1,
        "strength": 1,
        "texCoord": 0
      },
      "pbrMetallicRoughness": {
        "baseColorFactor": [
          1,
          1,
          1,
          1
        ],
        "baseColorTexture": {
          "index": 0,
          "texCoord": 0
        },
        "metallicFactor": 0,
        "metallicRoughnessTexture": {
          "index": 1,
          "texCoord": 0
        },
        "roughnessFactor": 1
      }
    },
    {
      "doubleSided": true,
      "emissiveFactor": [
        0,
        0,
        0
      ],
      "name": "plants",
      "normalTexture": {
        "index": 5,
        "scale": 1,
        "texCoord": 0
      },
      "occlusionTexture": {
        "index": 4,
        "strength": 1,
        "texCoord": 0
      },
      "pbrMetallicRoughness": {
        "baseColorFactor": [
          1,
          1,
          1,
          1
        ],
        "baseColorTexture": {
          "index": 3,
          "texCoord": 0
        },
        "metallicFactor": 1,
        "metallicRoughnessTexture": {
          "index": 4,
          "texCoord": 0
        },
        "roughnessFactor": 1
      }
    }
  ],
  "meshes": [
    {
      "name": "low_plants_0",
      "primitives": [
        {
          "attributes": {
            "NORMAL": 1,
            "POSITION": 0,
            "TANGENT": 2,
            "TEXCOORD_0": 3
          },
          "indices": 4,
          "material": 1,
          "mode": 4
        }
      ]
    },
    {
      "name": "pot__0",
      "primitives": [
        {
          "attributes": {
            "NORMAL": 6,
            "POSITION": 5,
            "TANGENT": 7,
            "TEXCOORD_0": 8
          },
          "indices": 9,
          "material": 0,
          "mode": 4
        }
      ]
    }
  ],
  "nodes": [
    {
      "children": [
        1
      ],
      "name": "RootNode (gltf orientation matrix)",
      "rotation": [
        -0.70710678118654746,
        -0,
        -0,
        0.70710678118654757
      ]
    },
    {
      "children": [
        2
      ],
      "name": "RootNode (model correction matrix)"
    },
    {
      "children": [
        3
      ],
      "matrix": [
        1,
        0,
        0,
        0,
        0,
        0,
        1,
        0,
        0,
        -1,
        0,
        0,
        0,
        0,
        0,
        1
      ],
      "name": "9a5857052d0b496a9b48e2d2f6c22b77.fbx"
    },
    {
      "children": [
        4,
        6
      ],
      "name": "RootNode"
    },
    {
      "children": [
        5
      ],
      "matrix": [
        414.79973420743568,
        -5.7782239496855583,
        211.88223535667512,
        0,
        205.73213646994463,
        123.03070104958316,
        -399.40458641967751,
        0,
        -51.007426471703852,
        449.23974418738692,
        112.10791103886622,
        0,
        -4.5931277275085449,
        239.95704650878906,
        19.70710563659668,
        1
      ],
      "name": "low"
    },
    {
      "mesh": 0,
      "name": "low_plants_0"
    },
    {
      "children": [
        7
      ],
      "matrix": [
        100,
        0,
        0,
        0,
        0,
        -1.6292067939183141e-05,
        -99.999999999998678,
        0,
        0,
        99.999999999998678,
        -1.6292067939183141e-05,
        0,
        0,
        0,
        0,
        1
      ],
      "name": "pot"
    },
    {
      "mesh": 1,
      "name": "pot__0"
    }
  ],
  "samplers": [
    {
      "magFilter": 9729,
      "minFilter": 9987,
      "wrapS": 10497,
      "wrapT": 10497
    }
  ],
  "scene": 0,
  "scenes": [
    {
      "name": "OSG_Scene",
      "nodes": [
        0
      ]
    }
  ],
  "textures": [
    {
      "sampler": 0,
      "source": 0
    },
    {
      "sampler": 0,
      "source": 1
    },
    {
      "sampler": 0,
      "source": 2
    },
    {
      "sampler": 0,
      "source": 3
    },
    {
      "sampler": 0,
      "source": 4
    },
    {
      "sampler": 0,
      "source": 5
    }
  ]
}

