<?xml version="1.0" encoding="UTF-8"?>
<!DOCTYPE svg  PUBLIC '-//W3C//DTD SVG 1.1//EN'  'http://www.w3.org/Graphics/SVG/1.1/DTD/svg11.dtd'>
<svg enable-background="new 0 0 37 45" version="1.1" viewBox="0 0 37 45" xml:space="preserve" xmlns="http://www.w3.org/2000/svg" xmlns:xlink="http://www.w3.org/1999/xlink">
<symbol id="h" viewBox="0 -5.15 9.2 5.154">
		<path d="m0-0.6l0.4 0.6c0.967 0.033 1.75-0.133 2.35-0.5l6.45-4-0.35-0.65c-0.3 0.033-0.65 0.117-1.05 0.25l-1.85 0.85c-0.567 0.267-1.35 0.733-2.35 1.4-0.967 0.667-2.167 1.35-3.6 2.05z" clip-rule="evenodd" fill-rule="evenodd"/>
</symbol>
<symbol id="i" viewBox="-0.004 -36.756 25.504 36.756">
		<path d="m25.5-1.45c-1.433-2.767-2.767-4.667-4-5.7-1.1-0.934-1.983-1.8-2.65-2.6-0.934-1.033-1.867-2.383-2.8-4.05-1.367-2.4-5-9-10.9-19.8l-0.4-1.2c-0.167-0.867-0.1-1.45 0.2-1.75 0.433-0.434-0.1-0.184-1.6 0.75-1.5 0.9-2.417 1.566-2.75 2-0.367 0.5-0.567 0.933-0.6 1.3-0.033 0.467 0.133 1.017 0.5 1.65l12.85 23.2 0.8 0.95c0.7 0.7 1.45 1.267 2.25 1.7 0.633 0.333 1.5 0.733 2.6 1.2 0.867 0.4 1.517 0.883 1.95 1.45 0.7 0.967 1.217 1.75 1.55 2.35l3-1.45z" clip-rule="evenodd" fill="#fff" fill-rule="evenodd"/>
</symbol>
<symbol id="j" viewBox="0 -38.941 22.25 38.941">
		<path d="m22.25-1.45c-1.133-1.833-1.567-3.383-1.3-4.65 0.566-2.867 0.316-5.4-0.75-7.6-0.934-2.066-5.2-9.867-12.8-23.4-0.3-0.5-0.9-0.967-1.8-1.4-1.133-0.533-2.1-0.583-2.9-0.15l-2.7 1.45c0.167 0.067 0.383 0.05 0.65-0.05 0.833-0.233 1.633-0.017 2.4 0.65l0.85 1.05c2.1 3.767 4.217 7.566 6.35 11.4 4.267 7.733 6.5 11.85 6.7 12.35 0.966 2.433 1.267 4.566 0.9 6.4-0.233 1.133 0.367 2.933 1.8 5.4l2.1-1.1 0.5-0.35z" clip-rule="evenodd" fill-rule="evenodd"/>
</symbol>
<symbol id="k" viewBox="-0.017 -42.341 31.067 42.341">
		<path d="m22.35 0l8.7-4.8c-0.3-0.434-0.583-0.95-0.85-1.55-0.534-1.233-0.7-2.283-0.5-3.15 0.566-2.867 0.316-5.4-0.75-7.6-0.934-2.066-5.2-9.867-12.8-23.4-0.3-0.5-0.9-0.967-1.8-1.4-1.133-0.533-2.1-0.583-2.9-0.15-1.833 0.733-3.2 1.333-4.1 1.8l-0.05-0.05-2.15 1.2 0.05 0.05c-0.467 0.267-1.133 0.7-2 1.3-0.833 0.633-1.4 1.033-1.7 1.2-0.8 0.433-1.283 1.267-1.45 2.5-0.133 0.966-0.066 1.733 0.2 2.3 7.333 13.667 11.617 21.45 12.85 23.35 1.3 2.033 3.316 3.6 6.05 4.7 0.833 0.3 1.617 1.017 2.35 2.15 0.367 0.533 0.65 1.05 0.85 1.55z" clip-rule="evenodd" fill="#DAE8EB" fill-rule="evenodd"/>
</symbol>
<symbol id="l" viewBox="-0.017 -42.341 31.067 42.341">
		<path d="m22.35 0l8.7-4.8c-0.3-0.434-0.583-0.95-0.85-1.55-0.534-1.233-0.7-2.283-0.5-3.15 0.566-2.867 0.316-5.4-0.75-7.6-0.934-2.066-5.2-9.867-12.8-23.4-0.3-0.5-0.9-0.967-1.8-1.4-1.133-0.533-2.1-0.583-2.9-0.15-1.833 0.733-3.2 1.333-4.1 1.8l-0.05-0.05-2.15 1.2 0.05 0.05c-0.467 0.267-1.133 0.7-2 1.3-0.833 0.633-1.4 1.033-1.7 1.2-0.8 0.433-1.283 1.267-1.45 2.5-0.133 0.966-0.066 1.733 0.2 2.3 7.333 13.667 11.617 21.45 12.85 23.35 1.3 2.033 3.316 3.6 6.05 4.7 0.833 0.3 1.617 1.017 2.35 2.15 0.367 0.533 0.65 1.05 0.85 1.55z" clip-rule="evenodd" fill="#6DC1D1" fill-rule="evenodd"/>
</symbol>
		<use transform="matrix(1 0 0 -1 0 2.0498)" x="-0.017" y="-42.341" width="31.067" height="42.341" enable-background="new" opacity=".6484" xlink:href="#l"/>
	<path d="m10.35 21.1c-0.133-0.467-0.133-1.467 0-3l0.2-2.15 4.9 1.6c0.8 0.267 1.767 0.684 2.899 1.25l7.601 4.15c0.7 0.366 0.8 0.733 0.3 1.1s-5.8-0.616-15.9-2.95z" clip-rule="evenodd" fill="#8EB0B8" fill-rule="evenodd"/>
		<radialGradient id="g" cx="15.954" cy="-13.887" r="23.522" gradientTransform="matrix(-.0632 .998 .998 .0632 27.719 1.7565)" gradientUnits="userSpaceOnUse">
		<stop stop-color="#fff" offset="0"/>
		<stop stop-color="#FDFDFD" offset=".4627"/>
		<stop stop-color="#F6F6F6" offset=".6431"/>
		<stop stop-color="#EAEAEA" offset=".7725"/>
		<stop stop-color="#D9D9D9" offset=".8824"/>
		<stop stop-color="#C3C3C3" offset=".9725"/>
		<stop stop-color="#BABABA" offset="1"/>
	</radialGradient>
	<path d="m20.7 21.55c1.2 0.633 1.85 0.967 1.95 1 0.633 0.267 1.25 0.45 1.85 0.55 0.866 0.134 1.55 0.217 2.05 0.25-5.666 10.534-8.783 16.184-9.35 16.95-0.167 0.233-0.367 0.517-0.6 0.851-0.233 0.267-0.633 0.566-1.2 0.899-0.833 0.533-1.816 0.566-2.95 0.101-6.2-2.9-9.833-4.884-10.9-5.95-0.633-0.667-0.833-1.467-0.6-2.4l9.6-17.85 10.15 5.599z" clip-rule="evenodd" fill="url(#g)" fill-rule="evenodd"/>
		<use transform="matrix(1 0 0 -1 0 2.0498)" x="-0.017" y="-42.341" width="31.067" height="42.341" enable-background="new" opacity=".4492" xlink:href="#k"/>
		<use transform="matrix(1 0 0 -1 8.75 5.4502)" y="-38.941" width="22.25" height="38.941" enable-background="new" opacity=".1914" xlink:href="#j"/>
		<use transform="matrix(1 0 0 -1 .2998 2.25)" x="-0.004" y="-36.756" width="25.504" height="36.756" enable-background="new" opacity=".3203" xlink:href="#i"/>
	<g clip-rule="evenodd" fill-rule="evenodd">
		<path d="m21.5 3.6c0.366-0.533 0.65-1.05 0.85-1.55l0.801 0.5c-1.035 2.267-2.051 3.567-3.051 3.9-1.433 0.4-2.516 0.767-3.25 1.1-1.267 0.534-2.2 1.233-2.8 2.1-0.567 0.867-2.917 5.083-7.05 12.65-2.067 3.8-4.067 7.517-6 11.15l0.15 1.55c0.567 1.233 1.967 2.434 4.2 3.6 3.333 1.767 5.316 2.801 5.95 3.101 1.367 0.6 2.4 0.816 3.1 0.649 1.467-0.333 2.65-1.449 3.55-3.35 0.3-0.667 2.1-3.983 5.399-9.95 2.967-5.366 4.967-8.966 6-10.8l-0.399 0.9c-0.934 2.067-5.2 9.867-12.8 23.4-0.3 0.5-0.9 0.967-1.8 1.4-1.133 0.533-2.1 0.583-2.9 0.149-1.833-0.733-3.2-1.333-4.1-1.8l-0.05 0.051-2.15-1.2 0.05-0.05c-0.467-0.267-1.133-0.699-2-1.3-0.833-0.633-1.4-1.033-1.7-1.2-0.8-0.433-1.283-1.267-1.45-2.5-0.133-0.966-0.066-1.733 0.2-2.3 7.333-13.667 11.617-21.45 12.85-23.35 1.3-2.034 3.316-3.6 6.05-4.7 0.833-0.3 1.617-1.017 2.35-2.15z" fill="#BDDFE6"/>
		<path d="m29.9 5.8l1.149 1.05-0.849 1.55c-0.533 1.233-0.7 2.283-0.5 3.15 0.434 2.1 0.399 4.034-0.101 5.8 0.334-2.333 0.267-4.1-0.199-5.3-0.334-0.867-0.467-1.75-0.4-2.65 0.1-0.867 0.4-2.067 0.9-3.6z" fill="#E8FBFF"/>
	</g>
		<use transform="matrix(1 0 0 -1 21.85 2.3501)" y="-5.15" width="9.2" height="5.154" enable-background="new" opacity=".3203" xlink:href="#h"/>
	<path d="m32.55 6.8c-0.166 0.333-0.434 0.55-0.8 0.65-0.333 0.1-0.667 0.066-1-0.1l-8.85-4.85c-0.334-0.167-0.534-0.433-0.601-0.8-0.1-0.367-0.066-0.717 0.101-1.05 0.166-0.333 0.433-0.533 0.8-0.6 0.333-0.1 0.666-0.066 1 0.1l8.8 4.85c0.333 0.167 0.55 0.433 0.65 0.8 0.1 0.333 0.067 0.667-0.1 1z" clip-rule="evenodd" fill="#BCE3EB" fill-rule="evenodd"/>
	<path d="m23.25 4.45c-0.7 1.167-1.5 2.233-2.4 3.2-0.633 0.633-1.25 1-1.85 1.1-0.566 0.067-0.8-0.083-0.7-0.45 0.134-0.367 1.033-0.917 2.7-1.65 0.634-0.3 1.384-1.033 2.25-2.2z" clip-rule="evenodd" fill="#fff" fill-rule="evenodd"/>
	<path d="m26.4 5.6c-0.067 0.066-0.15 0.167-0.25 0.3-0.167 0.233-0.284 0.533-0.351 0.9-0.133 0.567-0.267 0.867-0.399 0.9l0.149-1.25c0.134-0.4 0.167-0.75 0.101-1.05-0.034-0.167 0.083-0.183 0.35-0.05 0.134 0.067 0.267 0.15 0.4 0.25z" clip-rule="evenodd" fill="#fff" fill-rule="evenodd"/>
	<path d="m26.85 5.9l0.5 0.3-0.45 1.05c-0.034 0.167-0.15 0.317-0.351 0.45-0.094 0.075-0.151 0.141-0.175 0.2 0.017-0.155 0.059-0.355 0.125-0.6l0.351-1.4z" clip-rule="evenodd" fill="#fff" fill-rule="evenodd"/>
	<path d="m27.85 10.6l0.25 0.7c0 0.167-0.166 0.55-0.5 1.15l0.051-0.85c0.033-0.233-0.034-0.533-0.2-0.9l-0.2-0.45h0.25c0.166 0.033 0.282 0.15 0.349 0.35z" clip-rule="evenodd" fill="#fff" fill-rule="evenodd"/>
	<path d="m25.2 15.7c-0.3 0.733-0.517 1.083-0.65 1.05 0.233-0.333 0.367-0.717 0.4-1.15 0.066-0.934-0.367-1.733-1.3-2.4-1.934-1.434-3.25-2.367-3.95-2.8-1.634-0.967-2.9-1.316-3.8-1.05-0.333 0.1-0.783 0.45-1.35 1.05-0.267 0.3-0.517 0.583-0.75 0.85 0.167-0.433 0.4-0.867 0.7-1.3 0.567-0.867 1.117-1.284 1.65-1.25 1.133 0 4.133 1.633 9 4.9 0.333 0.667 0.35 1.367 0.05 2.1z" clip-rule="evenodd" fill="#fff" fill-rule="evenodd"/>
	<path d="m1.15 37.15c0.2 0 0.434 0.083 0.7 0.25 0.033 0 0.55 0.333 1.55 1 2.434 1.533 4.4 2.683 5.9 3.449 0.434 0.233 0.917 0.5 1.45 0.801 0.333 0.166 0.45 0.316 0.35 0.449-0.1 0.134-0.75-0.066-1.95-0.6-1.233-0.533-2.4-1.134-3.5-1.8-3.733-2.333-5.233-3.515-4.5-3.549z" clip-rule="evenodd" fill="#B5C4C7" fill-rule="evenodd"/>
	<path d="m10.55 15.95l6.95 3.75c0.9 0.5 2.017 1.133 3.35 1.9 1 0.533 1.784 0.9 2.351 1.1 0.934 0.3 2.05 0.517 3.35 0.649-1.267 0.067-2.2 0.017-2.8-0.149-0.533-0.134-0.884-0.233-1.05-0.3-0.334-0.2-0.767-0.45-1.3-0.75l-10.851-6.2z" clip-rule="evenodd" fill="#fff" fill-rule="evenodd"/>
	<path d="m13.3 14.55c0.333-0.1 0.667-0.066 1 0.1 0.333 0.2 0.55 0.483 0.65 0.85 0.1 0.333 0.066 0.667-0.1 1-0.167 0.333-0.434 0.55-0.8 0.65-0.333 0.067-0.667 0.017-1-0.15s-0.55-0.433-0.65-0.8c-0.1-0.333-0.066-0.667 0.1-1 0.167-0.333 0.433-0.55 0.8-0.65zm1.15 0.8c-0.067-0.233-0.2-0.4-0.4-0.5-0.5-0.233-0.867-0.117-1.1 0.35-0.133 0.2-0.167 0.417-0.1 0.65 0.066 0.2 0.2 0.35 0.4 0.45 0.467 0.3 0.85 0.2 1.15-0.3 0.1-0.2 0.117-0.417 0.05-0.65z" clip-rule="evenodd" fill="#fff" fill-rule="evenodd"/>
	<path d="m21.2 20.3c-0.066 0.133-0.084 0.284-0.05 0.45 0.066 0.167 0.166 0.283 0.3 0.35 0.133 0.1 0.3 0.117 0.5 0.05 0.166-0.033 0.283-0.133 0.35-0.3 0.167-0.367 0.084-0.633-0.25-0.8-0.333-0.233-0.616-0.15-0.85 0.25zm-0.4 0.75c-0.066-0.267-0.033-0.517 0.101-0.75 0.133-0.233 0.333-0.4 0.6-0.5 0.233-0.066 0.483-0.033 0.75 0.1 0.233 0.133 0.4 0.333 0.5 0.6 0.066 0.233 0.033 0.483-0.1 0.75-0.301 0.567-0.75 0.7-1.351 0.4-0.234-0.133-0.4-0.333-0.5-0.6z" clip-rule="evenodd" fill="#fff" fill-rule="evenodd"/>
	<path d="m15.8 16.35c0.267 0.167 0.434 0.383 0.5 0.65 0.1 0.3 0.083 0.567-0.05 0.8-0.133 0.267-0.35 0.434-0.65 0.5-0.267 0.1-0.533 0.083-0.8-0.05s-0.45-0.35-0.55-0.65c-0.067-0.267-0.033-0.533 0.1-0.8 0.167-0.267 0.383-0.45 0.65-0.55 0.3-0.067 0.567-0.033 0.8 0.1zm0.1 0.55c-0.033-0.2-0.133-0.333-0.3-0.4-0.4-0.233-0.7-0.15-0.9 0.25-0.233 0.4-0.15 0.7 0.25 0.9 0.4 0.233 0.7 0.15 0.9-0.25 0.1-0.133 0.117-0.3 0.05-0.5z" clip-rule="evenodd" fill="#fff" fill-rule="evenodd"/>
	<path d="m14.75 9.45c-0.367 1.333-0.9 2.9-1.6 4.7-1.367 3.633-2.8 6.65-4.3 9.05-2.433 3.833-4.85 7.567-7.25 11.2l13.15-24.95z" clip-rule="evenodd" fill="#fff" fill-rule="evenodd"/>
	<path d="m19.45 26.9c-4.5 8.833-7.067 13.25-7.7 13.25-1.433 0.033-3.183-0.917-5.25-2.851l2.85 1.3c0.7 0.301 1.283 0.417 1.75 0.351 0.667-0.101 1.25-0.533 1.75-1.3l6.6-10.75z" clip-rule="evenodd" fill="#fff" fill-rule="evenodd"/>
	<path d="m23.75 1.15l-0.3-0.1c-0.233-0.1-0.45 0.117-0.65 0.65-0.066 0.133-0.066 0.35 0 0.65 0.033 0.167 0.066 0.3 0.101 0.4l-0.65-0.4c-0.334-0.233-0.451-0.583-0.351-1.05 0.066-0.367 0.233-0.633 0.5-0.8 0.267-0.133 0.517-0.167 0.75-0.1 0.3 0.1 1.149 0.533 2.55 1.3-0.267-0.1-0.517-0.167-0.75-0.2-0.267 0-0.467-0.017-0.601-0.05l-0.399-0.1c0.033 0.033 0 0.066-0.101 0.1-0.132 0.033-0.283 0.183-0.449 0.45l-0.25 0.45c-0.1-0.067-0.084-0.25 0.05-0.55 0.133-0.3 0.317-0.517 0.55-0.65z" clip-rule="evenodd" fill="#fff" fill-rule="evenodd"/>
	<path d="m27.75 2.9l3.6 2c-0.6-0.033-1.083-0.15-1.449-0.35l-2.151-1.65z" clip-rule="evenodd" fill="#fff" fill-rule="evenodd"/>
	<path d="m32.25 5.55c0.2 0.3 0.017 0.6-0.55 0.9 0.1-0.333 0.066-0.633-0.101-0.9-0.1-0.2-0.05-0.3 0.15-0.3s0.367 0.1 0.501 0.3z" clip-rule="evenodd" fill="#fff" fill-rule="evenodd"/>
	<path d="m27.45 5.25l1.5 0.6c0.233 0.1 0.399 0.283 0.5 0.55l-2-1.15z" clip-rule="evenodd" fill="#fff" fill-rule="evenodd"/>
</svg>
