# Created by FreeCAD <http://www.freecadweb.org>
v 53.887272 -0.000000 13.282020
v 55.500000 0.000000 0.000000
v 55.500000 21.996401 0.000000
v 53.887272 21.996401 13.282020
v 49.142811 -0.000000 25.792135
v 49.142811 21.996401 25.792135
v 41.542347 -0.000000 36.803307
v 41.542347 21.996401 36.803307
v 31.527594 -0.000000 45.675606
v 31.527594 21.996401 45.675606
v 19.680571 -0.000000 51.893402
v 19.680571 21.996401 51.893402
v 6.689786 -0.000000 55.095341
v 6.689786 21.996401 55.095341
v -6.689786 -0.000000 55.095341
v -6.689786 21.996401 55.095341
v -19.680571 -0.000000 51.893402
v -19.680571 21.996401 51.893402
v -31.527594 -0.000000 45.675606
v -31.527594 21.996401 45.675606
v -41.542347 -0.000000 36.803307
v -41.542347 21.996401 36.803307
v -49.142811 21.996401 25.792135
v -49.142811 -0.000000 25.792135
v -53.887272 -0.000000 13.282020
v -53.887272 21.996401 13.282020
v -55.500000 21.996401 0.000000
v -55.500000 -0.000000 0.000000
v -53.887272 0.000000 -13.282020
v -53.887272 21.996401 -13.282020
v -49.142811 0.000000 -25.792135
v -49.142811 21.996401 -25.792135
v -41.542347 0.000000 -36.803307
v -41.542347 21.996401 -36.803307
v -31.527594 0.000000 -45.675606
v -31.527594 21.996401 -45.675606
v -19.680571 21.996401 -51.893402
v -19.680571 0.000000 -51.893402
v -6.689786 0.000000 -55.095341
v -6.689786 21.996401 -55.095341
v 6.689786 0.000000 -55.095341
v 6.689786 21.996401 -55.095341
v 19.680571 21.996401 -51.893402
v 19.680571 0.000000 -51.893402
v 31.527594 0.000000 -45.675606
v 31.527594 21.996401 -45.675606
v 41.542347 0.000000 -36.803307
v 41.542347 21.996401 -36.803307
v 49.142811 21.996401 -25.792135
v 49.142811 0.000000 -25.792135
v 53.887272 0.000000 -13.282020
v 53.887272 21.996401 -13.282020
vn 0.992709 0.000000 0.120537
vn 0.992709 -0.000000 0.120537
vn 0.935016 -0.000000 0.354605
vn 0.935016 0.000000 0.354605
vn 0.822984 -0.000000 0.568065
vn 0.822984 0.000000 0.568065
vn 0.663123 -0.000000 0.748511
vn 0.663123 0.000000 0.748511
vn 0.464723 -0.000000 0.885456
vn 0.464723 0.000000 0.885456
vn 0.239315 -0.000000 0.970942
vn 0.239315 0.000000 0.970942
vn 0.000000 0.000000 1.000000
vn 0.000000 0.000000 1.000000
vn -0.239315 0.000000 0.970942
vn -0.239315 0.000000 0.970942
vn -0.464723 0.000000 0.885456
vn -0.464723 0.000000 0.885456
vn -0.663123 0.000000 0.748511
vn -0.822984 0.000000 0.568065
vn -0.663123 0.000000 0.748511
vn -0.822984 0.000000 0.568065
vn -0.935016 0.000000 0.354605
vn -0.935016 0.000000 0.354605
vn -0.992709 0.000000 0.120537
vn -0.992709 -0.000000 0.120537
vn -0.992709 0.000000 -0.120537
vn -0.992709 0.000000 -0.120537
vn -0.935016 0.000000 -0.354605
vn -0.935016 0.000000 -0.354605
vn -0.822984 0.000000 -0.568065
vn -0.822984 0.000000 -0.568065
vn -0.663123 0.000000 -0.748511
vn -0.464723 0.000000 -0.885456
vn -0.663123 0.000000 -0.748511
vn -0.464723 0.000000 -0.885456
vn -0.239315 0.000000 -0.970942
vn -0.239315 0.000000 -0.970942
vn 0.000000 0.000000 -1.000000
vn 0.239315 0.000000 -0.970942
vn 0.000000 0.000000 -1.000000
vn 0.239315 0.000000 -0.970942
vn 0.464723 0.000000 -0.885456
vn 0.464723 0.000000 -0.885456
vn 0.663123 0.000000 -0.748511
vn 0.822984 0.000000 -0.568065
vn 0.663123 0.000000 -0.748511
vn 0.822984 0.000000 -0.568065
vn 0.935016 0.000000 -0.354605
vn 0.935016 0.000000 -0.354605
vn 0.992709 0.000000 -0.120537
vn 0.992709 0.000000 -0.120537
vn 0.000000 -1.000000 -0.000000
vn 0.000000 -1.000000 -0.000000
vn 0.000000 -1.000000 -0.000000
vn 0.000000 -1.000000 -0.000000
vn 0.000000 -1.000000 -0.000000
vn 0.000000 -1.000000 -0.000000
vn 0.000000 -1.000000 -0.000000
vn 0.000000 -1.000000 -0.000000
vn 0.000000 -1.000000 -0.000000
vn -0.000000 -1.000000 -0.000000
vn -0.000000 -1.000000 -0.000000
vn -0.000000 -1.000000 -0.000000
vn 0.000000 -1.000000 -0.000000
vn 0.000000 -1.000000 -0.000000
vn -0.000000 -1.000000 -0.000000
vn 0.000000 -1.000000 -0.000000
vn 0.000000 -1.000000 -0.000000
vn -0.000000 -1.000000 -0.000000
vn 0.000000 -1.000000 -0.000000
vn -0.000000 -1.000000 -0.000000
vn 0.000000 -1.000000 -0.000000
vn 0.000000 -1.000000 -0.000000
vn -0.000000 -1.000000 -0.000000
vn 0.000000 -1.000000 -0.000000
vn -0.000000 1.000000 0.000000
vn -0.000000 1.000000 0.000000
vn -0.000000 1.000000 0.000000
vn 0.000000 1.000000 0.000000
vn 0.000000 1.000000 0.000000
vn 0.000000 1.000000 0.000000
vn 0.000000 1.000000 0.000000
vn 0.000000 1.000000 0.000000
vn 0.000000 1.000000 0.000000
vn -0.000000 1.000000 0.000000
vn 0.000000 1.000000 0.000000
vn 0.000000 1.000000 0.000000
vn 0.000000 1.000000 0.000000
vn 0.000000 1.000000 0.000000
vn 0.000000 1.000000 0.000000
vn 0.000000 1.000000 0.000000
vn 0.000000 1.000000 -0.000000
vn 0.000000 1.000000 0.000000
vn 0.000000 1.000000 0.000000
vn 0.000000 1.000000 0.000000
vn 0.000000 1.000000 0.000000
vn 0.000000 1.000000 0.000000
vn -0.000000 1.000000 0.000000
vn 0.000000 1.000000 0.000000
f 1//1 2//1 3//1
f 1//2 3//2 4//2
f 5//3 4//3 6//3
f 5//4 1//4 4//4
f 7//5 6//5 8//5
f 7//6 5//6 6//6
f 9//7 8//7 10//7
f 9//8 7//8 8//8
f 11//9 10//9 12//9
f 11//10 9//10 10//10
f 13//11 12//11 14//11
f 13//12 11//12 12//12
f 15//13 14//13 16//13
f 15//14 13//14 14//14
f 17//15 16//15 18//15
f 17//16 15//16 16//16
f 19//17 18//17 20//17
f 19//18 17//18 18//18
f 21//19 20//19 22//19
f 21//20 22//20 23//20
f 21//21 19//21 20//21
f 24//22 21//22 23//22
f 25//23 24//23 23//23
f 25//24 23//24 26//24
f 25//25 26//25 27//25
f 28//26 25//26 27//26
f 29//27 28//27 27//27
f 29//28 27//28 30//28
f 31//29 30//29 32//29
f 31//30 29//30 30//30
f 33//31 32//31 34//31
f 33//32 31//32 32//32
f 35//33 34//33 36//33
f 35//34 36//34 37//34
f 35//35 33//35 34//35
f 38//36 35//36 37//36
f 39//37 37//37 40//37
f 39//38 38//38 37//38
f 41//39 40//39 42//39
f 41//40 42//40 43//40
f 41//41 39//41 40//41
f 44//42 41//42 43//42
f 45//43 43//43 46//43
f 45//44 44//44 43//44
f 47//45 46//45 48//45
f 47//46 48//46 49//46
f 47//47 45//47 46//47
f 50//48 47//48 49//48
f 51//49 49//49 52//49
f 51//50 50//50 49//50
f 2//51 52//51 3//51
f 2//52 51//52 52//52
f 17//53 19//53 21//53
f 17//54 21//54 24//54
f 15//55 17//55 24//55
f 31//56 25//56 28//56
f 31//57 28//57 29//57
f 9//58 11//58 13//58
f 9//59 13//59 15//59
f 7//60 15//60 24//60
f 7//61 9//61 15//61
f 5//62 24//62 25//62
f 5//63 7//63 24//63
f 1//64 5//64 25//64
f 41//65 33//65 35//65
f 41//66 35//66 38//66
f 41//67 38//67 39//67
f 50//68 2//68 1//68
f 50//69 51//69 2//69
f 50//70 25//70 31//70
f 50//71 1//71 25//71
f 47//72 31//72 33//72
f 47//73 41//73 44//73
f 47//74 44//74 45//74
f 47//75 33//75 41//75
f 47//76 50//76 31//76
f 20//77 18//77 22//77
f 22//78 18//78 23//78
f 18//79 16//79 23//79
f 26//80 32//80 27//80
f 27//81 32//81 30//81
f 12//82 10//82 14//82
f 14//83 10//83 16//83
f 16//84 8//84 23//84
f 10//85 8//85 16//85
f 23//86 6//86 26//86
f 8//87 6//87 23//87
f 6//88 4//88 26//88
f 34//89 42//89 36//89
f 36//90 42//90 37//90
f 37//91 42//91 40//91
f 3//92 49//92 4//92
f 52//93 49//93 3//93
f 26//94 49//94 32//94
f 4//95 49//95 26//95
f 32//96 48//96 34//96
f 42//97 48//97 43//97
f 43//98 48//98 46//98
f 34//99 48//99 42//99
f 49//100 48//100 32//100
