# Created by FreeCAD <http://www.freecadweb.org>
v 53.887272 -0.000000 13.282020
v 55.500000 0.000000 0.000000
v 55.500000 24.750000 0.000000
v 53.887272 24.750000 13.282020
v 49.142811 -0.000000 25.792135
v 49.142811 24.750000 25.792135
v 41.542347 -0.000000 36.803307
v 41.542347 24.750000 36.803307
v 31.527594 24.750000 45.675606
v 31.527594 -0.000000 45.675606
v 19.680571 -0.000000 51.893402
v 19.680571 24.750000 51.893402
v 6.689786 -0.000000 55.095341
v 6.689786 24.750000 55.095341
v -6.689786 24.750000 55.095341
v -6.689786 -0.000000 55.095341
v -19.680571 -0.000000 51.893402
v -19.680571 24.750000 51.893402
v -31.527594 -0.000000 45.675606
v -31.527594 24.750000 45.675606
v -41.542347 -0.000000 36.803307
v -41.542347 24.750000 36.803307
v -49.142811 24.750000 25.792135
v -49.142811 -0.000000 25.792135
v -53.887272 24.750000 13.282020
v -53.887272 -0.000000 13.282020
v -55.500000 -0.000000 0.000000
v -55.500000 24.750000 0.000000
v -53.887272 24.750000 -13.282020
v -53.887272 0.000000 -13.282020
v -49.142811 0.000000 -25.792135
v -49.142811 24.750000 -25.792135
v -41.542347 0.000000 -36.803307
v -41.542347 24.750000 -36.803307
v -31.527594 0.000000 -45.675606
v -31.527594 24.750000 -45.675606
v -19.680571 24.750000 -51.893402
v -19.680571 0.000000 -51.893402
v -6.689786 0.000000 -55.095341
v -6.689786 24.750000 -55.095341
v 6.689786 0.000000 -55.095341
v 6.689786 24.750000 -55.095341
v 19.680571 0.000000 -51.893402
v 19.680571 24.750000 -51.893402
v 31.527594 24.750000 -45.675606
v 31.527594 0.000000 -45.675606
v 41.542347 0.000000 -36.803307
v 41.542347 24.750000 -36.803307
v 49.142811 0.000000 -25.792135
v 49.142811 24.750000 -25.792135
v 53.887272 24.750000 -13.282020
v 53.887272 0.000000 -13.282020
v -30.959528 -0.000000 44.852619
v -40.793835 -0.000000 36.140186
v -48.257355 -0.000000 25.327414
v -19.325966 -0.000000 50.958385
v -52.916328 -0.000000 13.042704
v -6.569249 -0.000000 54.102634
v -54.500000 -0.000000 0.000000
v 6.569249 -0.000000 54.102634
v -52.916328 0.000000 -13.042704
v 19.325966 -0.000000 50.958385
v -48.257355 0.000000 -25.327414
v 30.959528 -0.000000 44.852619
v -40.793835 0.000000 -36.140186
v 40.793835 -0.000000 36.140186
v -30.959528 0.000000 -44.852619
v 48.257355 -0.000000 25.327414
v -19.325966 0.000000 -50.958385
v 52.916328 -0.000000 13.042704
v -6.569249 0.000000 -54.102634
v 54.500000 0.000000 0.000000
v 6.569249 0.000000 -54.102634
v 52.916328 0.000000 -13.042704
v 19.325966 0.000000 -50.958385
v 48.257355 0.000000 -25.327414
v 30.959528 0.000000 -44.852619
v 40.793835 0.000000 -36.140186
v 54.500000 23.750000 -0.000000
v 52.916328 23.750000 13.042704
v 48.257355 23.750000 25.327414
v 40.793835 23.750000 36.140186
v 30.959528 23.750000 44.852619
v 19.325966 23.750000 50.958385
v 6.569249 23.750000 54.102634
v -6.569249 23.750000 54.102634
v -19.325966 23.750000 50.958385
v -30.959528 23.750000 44.852619
v -40.793835 23.750000 36.140186
v -48.257355 23.750000 25.327414
v -52.916328 23.750000 13.042704
v -54.500000 23.750000 0.000000
v -52.916328 23.750000 -13.042704
v -48.257355 23.750000 -25.327414
v -40.793835 23.750000 -36.140186
v -30.959528 23.750000 -44.852619
v -19.325966 23.750000 -50.958385
v -6.569249 23.750000 -54.102634
v 6.569249 23.750000 -54.102634
v 19.325966 23.750000 -50.958385
v 30.959528 23.750000 -44.852619
v 40.793835 23.750000 -36.140186
v 48.257355 23.750000 -25.327414
v 52.916328 23.750000 -13.042704
vn 0.992709 0.000000 0.120537
vn 0.992709 -0.000000 0.120537
vn 0.935016 -0.000000 0.354605
vn 0.935016 0.000000 0.354605
vn 0.822984 -0.000000 0.568065
vn 0.663123 -0.000000 0.748511
vn 0.822984 0.000000 0.568065
vn 0.663123 -0.000000 0.748511
vn 0.464723 -0.000000 0.885456
vn 0.464723 0.000000 0.885456
vn 0.239316 -0.000000 0.970942
vn 0.000000 -0.000000 1.000000
vn 0.239316 0.000000 0.970942
vn 0.000000 0.000000 1.000000
vn -0.239316 0.000000 0.970942
vn -0.239316 0.000000 0.970942
vn -0.464723 0.000000 0.885456
vn -0.464723 0.000000 0.885456
vn -0.663123 0.000000 0.748511
vn -0.822984 0.000000 0.568065
vn -0.663123 0.000000 0.748511
vn -0.822984 0.000000 0.568065
vn -0.935016 0.000000 0.354605
vn -0.935016 0.000000 0.354605
vn -0.992709 0.000000 0.120537
vn -0.992709 -0.000000 0.120537
vn -0.992709 0.000000 -0.120537
vn -0.992709 0.000000 -0.120537
vn -0.935016 0.000000 -0.354605
vn -0.935016 0.000000 -0.354605
vn -0.822984 0.000000 -0.568065
vn -0.822984 0.000000 -0.568065
vn -0.663123 0.000000 -0.748511
vn -0.464723 0.000000 -0.885456
vn -0.663123 0.000000 -0.748511
vn -0.464723 0.000000 -0.885456
vn -0.239316 0.000000 -0.970942
vn -0.239316 0.000000 -0.970942
vn 0.000000 0.000000 -1.000000
vn 0.000000 0.000000 -1.000000
vn 0.239316 0.000000 -0.970942
vn 0.464723 0.000000 -0.885456
vn 0.239316 0.000000 -0.970942
vn 0.464723 0.000000 -0.885456
vn 0.663123 0.000000 -0.748511
vn 0.663123 0.000000 -0.748511
vn 0.822984 0.000000 -0.568065
vn 0.935016 0.000000 -0.354605
vn 0.822984 0.000000 -0.568065
vn 0.935016 0.000000 -0.354605
vn 0.992709 0.000000 -0.120537
vn 0.992709 0.000000 -0.120537
vn -0.000000 1.000000 0.000000
vn -0.000000 1.000000 0.000000
vn -0.000000 1.000000 0.000000
vn 0.000000 1.000000 0.000000
vn 0.000000 1.000000 0.000000
vn 0.000000 1.000000 0.000000
vn 0.000000 1.000000 0.000000
vn 0.000000 1.000000 0.000000
vn 0.000000 1.000000 0.000000
vn -0.000000 1.000000 0.000000
vn 0.000000 1.000000 0.000000
vn 0.000000 1.000000 0.000000
vn 0.000000 1.000000 0.000000
vn 0.000000 1.000000 0.000000
vn 0.000000 1.000000 0.000000
vn 0.000000 1.000000 0.000000
vn 0.000000 1.000000 -0.000000
vn 0.000000 1.000000 0.000000
vn 0.000000 1.000000 0.000000
vn 0.000000 1.000000 0.000000
vn 0.000000 1.000000 0.000000
vn 0.000000 1.000000 0.000000
vn -0.000000 1.000000 0.000000
vn 0.000000 1.000000 0.000000
vn 0.000000 -1.000000 -0.000000
vn 0.000000 -1.000000 -0.000000
vn 0.000000 -1.000000 -0.000000
vn 0.000000 -1.000000 -0.000000
vn 0.000000 -1.000000 -0.000000
vn 0.000000 -1.000000 -0.000000
vn 0.000000 -1.000000 -0.000000
vn 0.000000 -1.000000 -0.000000
vn 0.000000 -1.000000 -0.000000
vn 0.000000 -1.000000 -0.000000
vn 0.000000 -1.000000 -0.000000
vn 0.000000 -1.000000 -0.000000
vn -0.000000 -1.000000 -0.000000
vn -0.000000 -1.000000 -0.000000
vn 0.000000 -1.000000 -0.000000
vn 0.000000 -1.000000 -0.000000
vn 0.000000 -1.000000 -0.000000
vn 0.000000 -1.000000 -0.000000
vn 0.000000 -1.000000 -0.000000
vn 0.000000 -1.000000 -0.000000
vn 0.000000 -1.000000 -0.000000
vn 0.000000 -1.000000 -0.000000
vn 0.000000 -1.000000 -0.000000
vn 0.000000 -1.000000 -0.000000
vn 0.000000 -1.000000 -0.000000
vn 0.000000 -1.000000 -0.000000
vn 0.000000 -1.000000 -0.000000
vn 0.000000 -1.000000 -0.000000
vn 0.000000 -1.000000 -0.000000
vn 0.000000 -1.000000 -0.000000
vn 0.000000 -1.000000 -0.000000
vn 0.000000 -1.000000 -0.000000
vn 0.000000 -1.000000 -0.000000
vn 0.000000 -1.000000 -0.000000
vn 0.000000 -1.000000 -0.000000
vn 0.000000 -1.000000 -0.000000
vn 0.000000 -1.000000 -0.000000
vn -0.000000 -1.000000 -0.000000
vn -0.000000 -1.000000 -0.000000
vn -0.000000 -1.000000 -0.000000
vn 0.000000 -1.000000 -0.000000
vn 0.000000 -1.000000 -0.000000
vn 0.000000 -1.000000 -0.000000
vn 0.000000 -1.000000 -0.000000
vn 0.000000 -1.000000 -0.000000
vn 0.000000 -1.000000 -0.000000
vn 0.000000 -1.000000 -0.000000
vn 0.000000 -1.000000 -0.000000
vn 0.000000 -1.000000 -0.000000
vn 0.000000 -1.000000 -0.000000
vn 0.000000 -1.000000 -0.000000
vn 0.000000 -1.000000 -0.000000
vn -0.992709 -0.000000 -0.120537
vn -0.992709 0.000000 -0.120537
vn -0.935016 0.000000 -0.354605
vn -0.935016 0.000000 -0.354605
vn -0.822984 0.000000 -0.568065
vn -0.663123 -0.000000 -0.748511
vn -0.822984 0.000000 -0.568065
vn -0.663123 0.000000 -0.748511
vn -0.464723 0.000000 -0.885456
vn -0.464723 0.000000 -0.885456
vn -0.239316 0.000000 -0.970942
vn -0.239316 0.000000 -0.970942
vn -0.000000 0.000000 -1.000000
vn 0.239316 0.000000 -0.970942
vn 0.000000 0.000000 -1.000000
vn 0.239316 0.000000 -0.970942
vn 0.464723 0.000000 -0.885456
vn 0.464723 0.000000 -0.885456
vn 0.663123 0.000000 -0.748511
vn 0.822984 0.000000 -0.568065
vn 0.663123 0.000000 -0.748511
vn 0.822984 0.000000 -0.568065
vn 0.935016 0.000000 -0.354605
vn 0.935016 0.000000 -0.354605
vn 0.992709 0.000000 -0.120537
vn 0.992709 0.000000 -0.120537
vn 0.992709 -0.000000 0.120537
vn 0.992709 0.000000 0.120537
vn 0.935016 -0.000000 0.354605
vn 0.935016 0.000000 0.354605
vn 0.822984 0.000000 0.568065
vn 0.822984 0.000000 0.568065
vn 0.663123 -0.000000 0.748511
vn 0.663123 0.000000 0.748511
vn 0.464723 0.000000 0.885456
vn 0.464723 0.000000 0.885456
vn 0.239316 -0.000000 0.970942
vn 0.239316 0.000000 0.970942
vn 0.000000 0.000000 1.000000
vn -0.000000 0.000000 1.000000
vn -0.239316 0.000000 0.970942
vn -0.239316 0.000000 0.970942
vn -0.464723 0.000000 0.885456
vn -0.464723 0.000000 0.885456
vn -0.663123 0.000000 0.748511
vn -0.663123 0.000000 0.748511
vn -0.822984 0.000000 0.568065
vn -0.935016 0.000000 0.354605
vn -0.822984 0.000000 0.568065
vn -0.935016 0.000000 0.354605
vn -0.992709 0.000000 0.120537
vn -0.992709 0.000000 0.120537
vn 0.000000 -1.000000 0.000000
vn 0.000000 -1.000000 0.000000
vn 0.000000 -1.000000 0.000000
vn 0.000000 -1.000000 0.000000
vn 0.000000 -1.000000 0.000000
vn 0.000000 -1.000000 0.000000
vn -0.000000 -1.000000 0.000000
vn 0.000000 -1.000000 0.000000
vn 0.000000 -1.000000 0.000000
vn 0.000000 -1.000000 0.000000
vn 0.000000 -1.000000 0.000000
vn 0.000000 -1.000000 0.000000
vn 0.000000 -1.000000 0.000000
vn 0.000000 -1.000000 0.000000
vn 0.000000 -1.000000 0.000000
vn 0.000000 -1.000000 0.000000
vn 0.000000 -1.000000 0.000000
vn 0.000000 -1.000000 0.000000
vn 0.000000 -1.000000 0.000000
vn 0.000000 -1.000000 0.000000
vn -0.000000 -1.000000 0.000000
vn 0.000000 -1.000000 0.000000
vn -0.000000 -1.000000 0.000000
vn 0.000000 -1.000000 0.000000
f 1//1 2//1 3//1
f 1//2 3//2 4//2
f 5//3 4//3 6//3
f 5//4 1//4 4//4
f 7//5 6//5 8//5
f 7//6 8//6 9//6
f 7//7 5//7 6//7
f 10//8 7//8 9//8
f 11//9 9//9 12//9
f 11//10 10//10 9//10
f 13//11 12//11 14//11
f 13//12 14//12 15//12
f 13//13 11//13 12//13
f 16//14 13//14 15//14
f 17//15 15//15 18//15
f 17//16 16//16 15//16
f 19//17 18//17 20//17
f 19//18 17//18 18//18
f 21//19 20//19 22//19
f 21//20 22//20 23//20
f 21//21 19//21 20//21
f 24//22 21//22 23//22
f 24//23 23//23 25//23
f 26//24 24//24 25//24
f 27//25 26//25 25//25
f 27//26 25//26 28//26
f 27//27 28//27 29//27
f 30//28 27//28 29//28
f 31//29 29//29 32//29
f 31//30 30//30 29//30
f 33//31 32//31 34//31
f 33//32 31//32 32//32
f 35//33 34//33 36//33
f 35//34 36//34 37//34
f 35//35 33//35 34//35
f 38//36 35//36 37//36
f 39//37 37//37 40//37
f 39//38 38//38 37//38
f 41//39 40//39 42//39
f 41//40 39//40 40//40
f 43//41 42//41 44//41
f 43//42 44//42 45//42
f 43//43 41//43 42//43
f 46//44 43//44 45//44
f 47//45 45//45 48//45
f 47//46 46//46 45//46
f 49//47 48//47 50//47
f 49//48 50//48 51//48
f 49//49 47//49 48//49
f 52//50 49//50 51//50
f 2//51 51//51 3//51
f 2//52 52//52 51//52
f 20//53 18//53 22//53
f 22//54 18//54 23//54
f 18//55 15//55 23//55
f 25//56 32//56 28//56
f 28//57 32//57 29//57
f 12//58 9//58 14//58
f 14//59 9//59 15//59
f 15//60 8//60 23//60
f 9//61 8//61 15//61
f 23//62 6//62 25//62
f 8//63 6//63 23//63
f 6//64 4//64 25//64
f 34//65 42//65 36//65
f 36//66 42//66 37//66
f 37//67 42//67 40//67
f 3//68 50//68 4//68
f 51//69 50//69 3//69
f 25//70 50//70 32//70
f 4//71 50//71 25//71
f 32//72 48//72 34//72
f 42//73 48//73 44//73
f 44//74 48//74 45//74
f 34//75 48//75 42//75
f 50//76 48//76 32//76
f 53//77 19//77 21//77
f 53//78 21//78 54//78
f 55//79 21//79 24//79
f 55//80 54//80 21//80
f 56//81 17//81 19//81
f 56//82 19//82 53//82
f 26//83 55//83 24//83
f 57//84 55//84 26//84
f 58//85 16//85 17//85
f 58//86 17//86 56//86
f 59//87 26//87 27//87
f 59//88 57//88 26//88
f 13//89 16//89 58//89
f 60//90 13//90 58//90
f 30//91 59//91 27//91
f 61//92 59//92 30//92
f 62//93 11//93 13//93
f 62//94 13//94 60//94
f 63//95 30//95 31//95
f 63//96 61//96 30//96
f 64//97 10//97 11//97
f 64//98 11//98 62//98
f 65//99 31//99 33//99
f 65//100 63//100 31//100
f 7//101 10//101 64//101
f 7//102 64//102 66//102
f 67//103 65//103 33//103
f 35//104 67//104 33//104
f 5//105 7//105 66//105
f 5//106 66//106 68//106
f 69//107 67//107 35//107
f 38//108 69//108 35//108
f 1//109 5//109 68//109
f 1//110 68//110 70//110
f 39//111 69//111 38//111
f 39//112 71//112 69//112
f 72//113 1//113 70//113
f 2//114 1//114 72//114
f 73//115 71//115 39//115
f 41//116 73//116 39//116
f 74//117 2//117 72//117
f 52//118 2//118 74//118
f 75//119 73//119 41//119
f 43//120 75//120 41//120
f 49//121 52//121 74//121
f 49//122 74//122 76//122
f 77//123 75//123 43//123
f 78//124 49//124 76//124
f 46//125 77//125 43//125
f 47//126 49//126 78//126
f 47//127 77//127 46//127
f 47//128 78//128 77//128
f 79//129 72//129 80//129
f 72//130 70//130 80//130
f 80//131 68//131 81//131
f 70//132 68//132 80//132
f 81//133 66//133 82//133
f 82//134 66//134 83//134
f 68//135 66//135 81//135
f 66//136 64//136 83//136
f 83//137 62//137 84//137
f 64//138 62//138 83//138
f 84//139 60//139 85//139
f 62//140 60//140 84//140
f 85//141 58//141 86//141
f 86//142 58//142 87//142
f 60//143 58//143 85//143
f 58//144 56//144 87//144
f 87//145 53//145 88//145
f 56//146 53//146 87//146
f 88//147 54//147 89//147
f 89//148 54//148 90//148
f 53//149 54//149 88//149
f 54//150 55//150 90//150
f 55//151 57//151 90//151
f 90//152 57//152 91//152
f 57//153 59//153 91//153
f 91//154 59//154 92//154
f 92//155 59//155 93//155
f 59//156 61//156 93//156
f 61//157 63//157 93//157
f 93//158 63//158 94//158
f 94//159 63//159 95//159
f 63//160 65//160 95//160
f 65//161 67//161 95//161
f 95//162 67//162 96//162
f 96//163 67//163 97//163
f 67//164 69//164 97//164
f 69//165 71//165 97//165
f 97//166 71//166 98//166
f 71//167 73//167 98//167
f 98//168 73//168 99//168
f 73//169 75//169 99//169
f 99//170 75//170 100//170
f 75//171 77//171 100//171
f 100//172 77//172 101//172
f 101//173 78//173 102//173
f 77//174 78//174 101//174
f 102//175 78//175 103//175
f 103//176 76//176 104//176
f 78//177 76//177 103//177
f 76//178 74//178 104//178
f 104//179 72//179 79//179
f 74//180 72//180 104//180
f 87//181 88//181 89//181
f 87//182 89//182 90//182
f 86//183 90//183 91//183
f 86//184 87//184 90//184
f 93//185 91//185 92//185
f 84//186 85//186 86//186
f 84//187 86//187 91//187
f 94//188 91//188 93//188
f 81//189 82//189 83//189
f 81//190 83//190 84//190
f 98//191 94//191 95//191
f 98//192 95//192 96//192
f 98//193 96//193 97//193
f 104//194 79//194 80//194
f 100//195 98//195 99//195
f 103//196 80//196 81//196
f 103//197 84//197 91//197
f 103//198 81//198 84//198
f 103//199 104//199 80//199
f 101//200 91//200 94//200
f 101//201 94//201 98//201
f 101//202 98//202 100//202
f 102//203 91//203 101//203
f 102//204 103//204 91//204
