# Created by FreeCAD <http://www.freecadweb.org>
v 0.000000 0.000000 0.000000
v 1016.000000 0.000000 0.000000
v 0.000000 -19.049999 -0.000000
v 1016.000000 -19.049999 -0.000000
v 1016.000000 -0.000000 114.300003
v 1016.000000 -19.049999 114.300003
v 0.000000 -0.000000 114.300003
v 0.000000 -19.049999 114.300003
v 1016.000000 -19.049999 -0.000000
v 0.000000 -19.049999 -0.000000
vn 0.000000 0.000000 -1.000000
vn 0.000000 0.000000 -1.000000
vn 1.000000 0.000000 0.000000
vn 1.000000 0.000000 0.000000
vn 0.000000 0.000000 1.000000
vn 0.000000 0.000000 1.000000
vn -1.000000 -0.000000 -0.000000
vn -1.000000 0.000000 0.000000
vn 0.000000 1.000000 0.000000
vn 0.000000 1.000000 0.000000
vn 0.000000 -1.000000 0.000000
vn 0.000000 -1.000000 0.000000
f 1//1 2//1 3//1
f 3//2 2//2 4//2
f 2//3 5//3 4//3
f 4//4 5//4 6//4
f 5//5 7//5 6//5
f 6//6 7//6 8//6
f 7//7 1//7 8//7
f 8//8 1//8 3//8
f 5//9 2//9 7//9
f 7//10 2//10 1//10
f 9//11 6//11 8//11
f 9//12 8//12 10//12
