# Created by FreeCAD <http://www.freecadweb.org>
v 0.000000 0.000000 0.000000 204 204 204
v 1016.000000 0.000000 0.000000 204 204 204
v 0.000000 -19.049999 -0.000000 204 204 204
v 1016.000000 -19.049999 -0.000000 204 204 204
v 0.000000 -0.000000 114.300003 204 204 204
v 0.000000 -19.049999 114.300003 204 204 204
v 1016.000000 -0.000000 114.300003 204 204 204
v 1016.000000 -19.049999 114.300003 204 204 204
v 0.000000 -0.000000 120.650002 204 204 204
v 0.000000 -19.049999 120.650002 204 204 204
v 1016.000000 -0.000000 120.650002 204 204 204
v 1016.000000 -19.049999 120.650002 204 204 204
v 1016.000000 76.199997 114.300003 204 204 204
v 0.000000 76.199997 114.300003 204 204 204
v 0.000000 76.199997 120.650002 204 204 204
v 1016.000000 76.199997 120.650002 204 204 204
v 1016.000000 76.199997 114.300003 204 204 204
v 0.000000 76.199997 114.300003 204 204 204
vn 0.000000 0.000000 -1.000000
vn 0.000000 0.000000 -1.000000
vn -1.000000 -0.000000 -0.000000
vn -1.000000 0.000000 0.000000
vn 1.000000 0.000000 0.000000
vn 1.000000 0.000000 0.000000
vn 0.000000 1.000000 0.000000
vn 0.000000 1.000000 0.000000
vn 0.000000 -1.000000 0.000000
vn 0.000000 -1.000000 0.000000
vn -1.000000 0.000000 0.000000
vn -1.000000 -0.000000 0.000000
vn 1.000000 0.000000 0.000000
vn 1.000000 0.000000 0.000000
vn 0.000000 0.000000 -1.000000
vn -0.000000 0.000000 -1.000000
vn 0.000000 -1.000000 0.000000
vn 0.000000 -1.000000 0.000000
vn -1.000000 0.000000 0.000000
vn -1.000000 0.000000 0.000000
vn 0.000000 0.000000 1.000000
vn 0.000000 0.000000 1.000000
vn 1.000000 0.000000 0.000000
vn 1.000000 -0.000000 0.000000
vn 0.000000 1.000000 -0.000000
vn 0.000000 1.000000 0.000000
vn 0.000000 0.000000 1.000000
vn 0.000000 0.000000 1.000000
f 1//1 2//1 3//1
f 3//2 2//2 4//2
f 5//3 1//3 6//3
f 6//4 1//4 3//4
f 2//5 7//5 4//5
f 4//6 7//6 8//6
f 7//7 2//7 5//7
f 5//8 2//8 1//8
f 4//9 8//9 6//9
f 4//10 6//10 3//10
f 5//11 6//11 9//11
f 9//12 6//12 10//12
f 8//13 7//13 11//13
f 8//14 11//14 12//14
f 7//15 5//15 13//15
f 13//16 5//16 14//16
f 6//17 8//17 12//17
f 6//18 12//18 10//18
f 5//19 9//19 14//19
f 14//20 9//20 15//20
f 11//21 9//21 12//21
f 12//22 9//22 10//22
f 11//23 7//23 13//23
f 11//24 13//24 16//24
f 17//25 18//25 16//25
f 16//26 18//26 15//26
f 9//27 11//27 16//27
f 9//28 16//28 15//28
