# Created by FreeCAD <http://www.freecadweb.org>
v -0.000138 860.562256 294.409943
v 1015.999878 860.562256 294.409943
v -0.000138 879.612244 294.409943
v 1015.999878 879.612244 294.409943
v -0.000138 860.562256 -10.390055
v -0.000138 879.612244 288.059937
v -0.000138 879.612244 -10.390054
v 1015.999878 879.612244 288.059937
v 1015.999878 860.562256 -10.390055
v 1015.999878 879.612244 -10.390054
v -0.000137 905.012268 294.409943
v 1015.999878 905.012207 294.409943
v -0.000137 905.012268 288.059937
v 1015.999878 905.012207 288.059937
v 1015.999878 905.012207 294.409943
v 1015.999878 905.012207 288.059937
v -0.000137 905.012268 288.059937
v -0.000137 905.012268 294.409943
vn 0.000000 0.000000 1.000000
vn -0.000000 0.000000 1.000000
vn -1.000000 0.000000 0.000000
vn -1.000000 0.000000 0.000000
vn -1.000000 0.000000 0.000000
vn 1.000000 0.000000 0.000000
vn 1.000000 0.000000 0.000000
vn 1.000000 0.000000 0.000000
vn 0.000000 -1.000000 0.000000
vn 0.000000 -1.000000 0.000000
vn 0.000000 0.000000 1.000000
vn 0.000000 0.000000 1.000000
vn 0.000000 0.000000 -1.000000
vn 0.000000 0.000000 -1.000000
vn 0.000000 1.000000 0.000000
vn 0.000000 1.000000 0.000000
vn -1.000000 0.000000 0.000000
vn -1.000000 0.000000 0.000000
vn 1.000000 0.000000 0.000000
vn 1.000000 0.000000 0.000000
vn 0.000000 1.000000 0.000000
vn 0.000000 1.000000 0.000000
vn 0.000000 0.000000 -1.000000
vn -0.000000 0.000000 -1.000000
f 1//1 2//1 3//1
f 3//2 2//2 4//2
f 5//3 6//3 7//3
f 6//4 1//4 3//4
f 5//5 1//5 6//5
f 4//6 2//6 8//6
f 8//7 9//7 10//7
f 2//8 9//8 8//8
f 9//9 2//9 5//9
f 5//10 2//10 1//10
f 3//11 4//11 11//11
f 11//12 4//12 12//12
f 9//13 5//13 10//13
f 10//14 5//14 7//14
f 8//15 7//15 6//15
f 8//16 10//16 7//16
f 13//17 6//17 11//17
f 6//18 3//18 11//18
f 12//19 4//19 14//19
f 4//20 8//20 14//20
f 15//21 16//21 17//21
f 15//22 17//22 18//22
f 8//23 6//23 14//23
f 14//24 6//24 13//24
