# Created by FreeCAD <http://www.freecadweb.org>
v 0.000004 -124.583290 -25.400002
v -0.000000 11.941710 -25.400000
v 44.450005 -124.583290 -25.400002
v 44.450001 11.941710 -25.400002
v 57.150002 11.941710 -21.997046
v 66.447044 11.941711 -12.700001
v 62.410511 11.941710 -17.960514
v 51.024002 11.941710 -24.534517
v 69.849998 11.941711 -0.000001
v 68.984512 11.941711 -6.574005
v 0.000000 11.941709 50.799999
v 69.849998 11.941710 50.799999
v 44.450005 -124.583290 -25.400002
v 44.450001 11.941710 -25.400002
v 51.024006 -124.583290 -24.534517
v 57.150002 11.941710 -21.997046
v 57.150005 -124.583290 -21.997047
v 62.410511 11.941710 -17.960514
v 62.410515 -124.583290 -17.960514
v 66.447052 -124.583290 -12.700002
v 66.447044 11.941711 -12.700001
v 68.984512 11.941711 -6.574005
v 68.984520 -124.583290 -6.574006
v 69.850006 -124.583290 -0.000002
v 69.849998 11.941711 -0.000001
v 0.000000 8.766708 47.625000
v -0.000000 8.766709 -22.225000
v 0.000004 -121.408295 47.625000
v 0.000004 -124.583290 50.799999
v 0.000004 -121.408295 -22.225000
v 66.447052 -124.583290 -12.700002
v 57.150005 -124.583290 -21.997047
v 68.984520 -124.583290 -6.574006
v 69.850006 -124.583290 -0.000002
v 51.024006 -124.583290 -24.534517
v 69.850006 -124.583290 50.799999
v 41.275005 -121.408287 -22.225002
v 41.275002 8.766710 -22.225000
v 63.272045 8.766711 -9.525001
v 53.974998 8.766710 -18.822046
v 59.235512 8.766711 -14.785513
v 65.809517 8.766711 -3.399005
v 66.675003 8.766711 3.174999
v 41.275002 8.766710 -22.225000
v 47.849003 8.766710 -21.359516
v 66.675003 8.766710 47.625000
v 0.000000 8.766708 47.625000
v -0.000000 8.766709 -22.225000
v 66.675003 -121.408287 47.625000
v 66.675003 8.766710 47.625000
v 66.675003 -121.408287 3.174998
v 65.809517 -121.408287 -3.399005
v 63.272049 -121.408287 -9.525002
v 41.275005 -121.408287 -22.225002
v 53.975002 -121.408287 -18.822046
v 47.849007 -121.408287 -21.359518
v 59.235516 -121.408287 -14.785514
v 0.000004 -121.408295 47.625000
v 0.000004 -121.408295 -22.225000
v 53.975002 -121.408287 -18.822046
v 59.235516 -121.408287 -14.785514
v 63.272049 -121.408287 -9.525002
v 65.809517 -121.408287 -3.399005
v 66.675003 -121.408287 3.174998
v 66.675003 8.766711 3.174999
v -0.000001 11.941710 -25.400002
v 0.000001 -124.583290 -25.400002
v -44.450001 11.941709 -25.400002
v -44.450001 -124.583290 -25.400002
v -57.149998 -124.583290 -21.997046
v -66.447044 -124.583290 -12.700001
v -62.410511 -124.583290 -17.960512
v -51.024002 -124.583290 -24.534517
v -69.849998 -124.583290 -0.000001
v -68.984512 -124.583290 -6.574005
v 0.000001 -124.583290 50.799999
v -69.849998 -124.583290 50.799999
v -51.024006 11.941709 -24.534517
v -44.450001 -124.583290 -25.400002
v -51.024002 -124.583290 -24.534517
v -57.150002 11.941709 -21.997046
v -62.410515 11.941709 -17.960514
v -66.447044 -124.583290 -12.700001
v -66.447044 11.941709 -12.700001
v -68.984520 11.941709 -6.574005
v -69.849998 11.941709 -0.000001
v 0.000001 -121.408287 -22.225000
v 0.000001 -121.408287 47.625000
v -0.000001 8.766709 47.625000
v -0.000001 11.941710 50.799999
v -0.000001 8.766709 -22.225000
v -66.447044 11.941709 -12.700001
v -57.150002 11.941709 -21.997046
v -69.849998 11.941709 -0.000001
v -51.024006 11.941709 -24.534517
v -69.849998 11.941709 50.799999
v -41.275002 8.766709 -22.225000
v -41.274998 -121.408295 -22.225000
v -63.272045 -121.408295 -9.525001
v -66.674995 -121.408295 3.174999
v -59.235512 -121.408295 -14.785513
v -65.809517 -121.408295 -3.399004
v -53.974998 -121.408295 -18.822046
v -41.274998 -121.408295 -22.225000
v -47.849003 -121.408295 -21.359516
v -66.674995 -121.408295 47.625000
v 0.000001 -121.408287 47.625000
v 0.000001 -121.408287 -22.225000
v -66.675003 8.766708 47.625000
v -66.675003 8.766708 3.174999
v -65.809517 8.766708 -3.399005
v -63.272045 8.766708 -9.525001
v -53.975002 8.766708 -18.822046
v -47.849003 8.766709 -21.359516
v -59.235512 8.766708 -14.785513
v -0.000001 8.766709 47.625000
v -66.675003 8.766708 47.625000
v -0.000001 8.766709 -22.225000
v -41.275002 8.766709 -22.225000
v -47.849003 8.766709 -21.359516
v -53.975002 8.766708 -18.822046
v -59.235512 8.766708 -14.785513
v -65.809517 8.766708 -3.399005
v -66.675003 8.766708 3.174999
v -66.675003 8.766708 3.174999
vn 0.000000 0.000000 -1.000000
vn -0.000000 -0.000000 -1.000000
vn 0.000000 1.000000 -0.000000
vn 0.000000 1.000000 0.000000
vn 0.000000 1.000000 -0.000000
vn 0.000000 1.000000 0.000000
vn -0.000000 1.000000 0.000000
vn -0.000000 1.000000 0.000000
vn -0.000000 1.000000 0.000000
vn -0.000000 1.000000 0.000000
vn 0.130526 0.000000 -0.991445
vn 0.382683 0.000000 -0.923880
vn 0.130526 0.000000 -0.991445
vn 0.608761 0.000000 -0.793353
vn 0.382683 0.000000 -0.923880
vn 0.608762 0.000000 -0.793353
vn 0.793353 0.000000 -0.608761
vn 0.923880 0.000000 -0.382683
vn 0.793353 0.000000 -0.608762
vn 0.923880 0.000000 -0.382683
vn 0.991445 0.000000 -0.130527
vn 0.991445 0.000000 -0.130527
vn -1.000000 -0.000000 0.000000
vn -1.000000 -0.000000 0.000000
vn -1.000000 -0.000000 0.000000
vn -1.000000 -0.000000 0.000000
vn -1.000000 -0.000000 0.000000
vn -1.000000 -0.000000 0.000000
vn -1.000000 -0.000000 0.000000
vn -1.000000 -0.000000 0.000000
vn 0.000000 -1.000000 0.000000
vn -0.000000 -1.000000 0.000000
vn 0.000000 -1.000000 0.000000
vn 0.000000 -1.000000 0.000000
vn 0.000000 -1.000000 0.000000
vn 0.000000 -1.000000 0.000000
vn -0.000000 -1.000000 -0.000000
vn -0.000000 -1.000000 0.000000
vn 1.000000 0.000000 0.000000
vn 1.000000 0.000000 0.000000
vn 0.000000 0.000000 1.000000
vn 0.000000 0.000000 1.000000
vn 0.000000 0.000000 1.000000
vn 0.000000 -0.000000 1.000000
vn 0.000000 -1.000000 -0.000000
vn -0.000000 -1.000000 0.000000
vn 0.000000 -1.000000 0.000000
vn -0.000000 -1.000000 0.000000
vn 0.000000 -1.000000 -0.000000
vn 0.000000 -1.000000 -0.000000
vn 0.000000 -1.000000 -0.000000
vn 0.000000 -1.000000 -0.000000
vn 0.000000 0.000000 -1.000000
vn 0.000000 0.000000 -1.000000
vn 0.000000 1.000000 0.000000
vn 0.000000 1.000000 0.000000
vn 0.000000 1.000000 0.000000
vn 0.000000 1.000000 0.000000
vn 0.000000 1.000000 0.000000
vn -0.000000 1.000000 0.000000
vn -0.000000 1.000000 0.000000
vn -0.000000 1.000000 0.000000
vn -0.130526 -0.000000 0.991445
vn -0.130526 -0.000000 0.991445
vn -0.382684 -0.000000 0.923879
vn -0.382683 -0.000000 0.923880
vn -0.608761 -0.000000 0.793353
vn -0.793353 -0.000000 0.608761
vn -0.608761 -0.000000 0.793353
vn -0.793353 -0.000000 0.608761
vn -0.923880 -0.000000 0.382683
vn -0.923879 -0.000000 0.382684
vn -0.991445 -0.000000 0.130527
vn -0.991445 -0.000000 0.130527
vn -1.000000 0.000000 0.000000
vn -1.000000 -0.000000 -0.000000
vn 0.000000 -0.000000 -1.000000
vn 0.000000 0.000000 -1.000000
vn 0.000000 -1.000000 0.000000
vn 0.000000 -1.000000 0.000000
vn 0.000000 -1.000000 0.000000
vn 0.000000 -1.000000 0.000000
vn 0.000000 -1.000000 0.000000
vn 0.000000 -1.000000 0.000000
vn -0.000000 -1.000000 0.000000
vn 0.000000 -1.000000 0.000000
vn -0.130526 -0.000000 -0.991445
vn -0.130526 0.000000 -0.991445
vn -0.382684 -0.000000 -0.923880
vn -0.382684 -0.000000 -0.923880
vn -0.608761 -0.000000 -0.793353
vn -0.793353 -0.000000 -0.608762
vn -0.608761 -0.000000 -0.793354
vn -0.923880 -0.000000 -0.382683
vn -0.793354 -0.000000 -0.608761
vn -0.923879 -0.000000 -0.382684
vn -0.991445 -0.000000 -0.130527
vn -0.991445 -0.000000 -0.130525
vn 1.000000 0.000000 -0.000000
vn 1.000000 0.000000 -0.000000
vn 1.000000 0.000000 -0.000000
vn 1.000000 0.000000 -0.000000
vn 1.000000 0.000000 -0.000000
vn 1.000000 0.000000 -0.000000
vn 1.000000 0.000000 -0.000000
vn 1.000000 0.000000 -0.000000
vn 0.000000 1.000000 0.000000
vn -0.000000 1.000000 -0.000000
vn 0.000000 1.000000 0.000000
vn 0.000000 1.000000 0.000000
vn 0.000000 1.000000 0.000000
vn -0.000000 1.000000 0.000000
vn -0.000000 1.000000 0.000000
vn -0.000000 1.000000 -0.000000
vn -1.000000 0.000000 0.000000
vn -1.000000 0.000000 0.000000
vn 0.000000 0.000000 1.000000
vn 0.000000 0.000000 1.000000
vn 0.000000 0.000000 1.000000
vn 0.000000 -0.000000 1.000000
vn -0.000000 1.000000 -0.000000
vn -0.000000 1.000000 -0.000000
vn 0.000000 1.000000 0.000000
vn 0.000000 1.000000 0.000000
vn 0.000000 1.000000 0.000000
vn -0.000000 1.000000 0.000000
vn -0.000000 1.000000 0.000000
vn -0.000000 1.000000 -0.000000
vn 0.000000 -0.000000 -1.000000
vn -0.000000 0.000000 -1.000000
vn 0.000000 -1.000000 0.000000
vn -0.000000 -1.000000 -0.000001
vn 0.000000 -1.000000 0.000000
vn 0.000000 -1.000000 0.000000
vn 0.000000 -1.000000 0.000000
vn 0.000000 -1.000000 0.000000
vn 0.000000 -1.000000 0.000000
vn 0.000000 -1.000000 -0.000000
vn 0.130526 0.000000 0.991445
vn 0.130526 -0.000000 0.991445
vn 0.382683 0.000000 0.923880
vn 0.382683 0.000000 0.923880
vn 0.608762 -0.000000 0.793353
vn 0.793353 -0.000000 0.608761
vn 0.608761 0.000000 0.793353
vn 0.793353 -0.000000 0.608761
vn 0.923879 0.000000 0.382684
vn 0.923879 0.000000 0.382684
vn 0.991445 0.000000 0.130527
vn 0.991445 0.000000 0.130525
vn 1.000000 0.000000 0.000000
vn 1.000000 0.000000 0.000000
g poignet_71_002 (Meshed)
f 1//1 2//1 3//1
f 2//2 4//2 3//2
f 5//3 6//3 7//3
f 4//4 5//4 8//4
f 4//5 6//5 5//5
f 9//6 10//6 6//6
f 9//7 6//7 4//7
f 11//8 4//8 2//8
f 11//9 12//9 9//9
f 11//10 9//10 4//10
f 13//11 14//11 8//11
f 15//12 8//12 16//12
f 15//13 13//13 8//13
f 17//14 16//14 18//14
f 17//15 15//15 16//15
f 19//16 17//16 18//16
f 20//17 18//17 21//17
f 20//18 21//18 22//18
f 20//19 19//19 18//19
f 23//20 20//20 22//20
f 24//21 22//21 25//21
f 24//22 23//22 22//22
f 2//23 26//23 11//23
f 27//24 26//24 2//24
f 28//25 29//25 11//25
f 28//26 11//26 26//26
f 1//27 30//27 27//27
f 1//28 28//28 30//28
f 1//29 29//29 28//29
f 1//30 27//30 2//30
f 31//31 32//31 19//31
f 33//32 34//32 31//32
f 32//33 3//33 35//33
f 31//34 3//34 32//34
f 34//35 3//35 31//35
f 3//36 29//36 1//36
f 36//37 29//37 34//37
f 34//38 29//38 3//38
f 9//39 12//39 36//39
f 9//40 36//40 34//40
f 11//41 29//41 36//41
f 12//42 11//42 36//42
f 27//43 30//43 37//43
f 38//44 27//44 37//44
f 39//45 40//45 41//45
f 42//46 43//46 39//46
f 40//47 44//47 45//47
f 39//48 44//48 40//48
f 43//49 44//49 39//49
f 46//50 47//50 43//50
f 44//51 47//51 48//51
f 43//52 47//52 44//52
f 28//53 26//53 49//53
f 26//54 50//54 49//54
f 51//55 52//55 53//55
f 54//56 55//56 56//56
f 54//57 57//57 55//57
f 54//58 53//58 57//58
f 54//59 51//59 53//59
f 58//60 49//60 51//60
f 58//61 54//61 59//61
f 58//62 51//62 54//62
f 44//63 54//63 56//63
f 45//64 44//64 56//64
f 40//65 56//65 60//65
f 40//66 45//66 56//66
f 41//67 60//67 61//67
f 41//68 61//68 62//68
f 41//69 40//69 60//69
f 39//70 41//70 62//70
f 42//71 62//71 63//71
f 42//72 39//72 62//72
f 43//73 63//73 64//73
f 43//74 42//74 63//74
f 49//75 65//75 51//75
f 50//76 65//76 49//76
g poignet_71_001 (Meshed)
f 66//77 67//77 68//77
f 67//78 69//78 68//78
f 70//79 71//79 72//79
f 69//80 70//80 73//80
f 69//81 71//81 70//81
f 74//82 75//82 71//82
f 74//83 71//83 69//83
f 76//84 69//84 67//84
f 76//85 77//85 74//85
f 76//86 74//86 69//86
f 78//87 79//87 80//87
f 78//88 68//88 79//88
f 81//89 80//89 70//89
f 81//90 78//90 80//90
f 82//91 70//91 72//91
f 82//92 72//92 83//92
f 82//93 81//93 70//93
f 84//94 83//94 75//94
f 84//95 82//95 83//95
f 85//96 84//96 75//96
f 86//97 75//97 74//97
f 86//98 85//98 75//98
f 87//99 76//99 67//99
f 87//100 88//100 76//100
f 89//101 90//101 76//101
f 89//102 76//102 88//102
f 66//103 91//103 87//103
f 66//104 89//104 91//104
f 66//105 90//105 89//105
f 66//106 87//106 67//106
f 92//107 93//107 82//107
f 85//108 94//108 92//108
f 93//109 68//109 95//109
f 92//110 68//110 93//110
f 94//111 68//111 92//111
f 68//112 90//112 66//112
f 96//113 90//113 94//113
f 94//114 90//114 68//114
f 74//115 77//115 96//115
f 74//116 96//116 94//116
f 76//117 90//117 96//117
f 77//118 76//118 96//118
f 87//119 91//119 97//119
f 98//120 87//120 97//120
f 99//121 100//121 101//121
f 102//122 100//122 99//122
f 103//123 104//123 105//123
f 101//124 104//124 103//124
f 100//125 104//125 101//125
f 106//126 107//126 100//126
f 104//127 107//127 108//127
f 100//128 107//128 104//128
f 89//129 88//129 109//129
f 88//130 106//130 109//130
f 110//131 111//131 112//131
f 97//132 113//132 114//132
f 97//133 115//133 113//133
f 97//134 112//134 115//134
f 97//135 110//135 112//135
f 116//136 117//136 110//136
f 116//137 97//137 118//137
f 116//138 110//138 97//138
f 104//139 119//139 120//139
f 105//140 104//140 120//140
f 103//141 120//141 121//141
f 103//142 105//142 120//142
f 101//143 121//143 122//143
f 101//144 122//144 112//144
f 101//145 103//145 121//145
f 99//146 101//146 112//146
f 102//147 112//147 123//147
f 102//148 99//148 112//148
f 100//149 123//149 124//149
f 100//150 102//150 123//150
f 109//151 100//151 125//151
f 106//152 100//152 109//152
