# Created by FreeCAD <http://www.freecadweb.org>
v 2198.755371 0.000000 2681.708252
v -2373.244629 0.000000 2681.708252
v -2373.244629 -203.199997 2681.708252
v 2198.755371 -203.199997 2681.708252
v 2198.755371 -203.199997 -1153.691772
v 2198.755371 -0.000000 -1153.691772
v -2373.244629 -0.000000 -1153.691772
v -2373.244629 -203.199997 -1153.691772
vn 0.000000 0.000000 1.000000
vn 0.000000 0.000000 1.000000
vn 1.000000 0.000000 0.000000
vn 1.000000 0.000000 -0.000000
vn 0.000000 0.000000 -1.000000
vn 0.000000 0.000000 -1.000000
vn -1.000000 0.000000 0.000000
vn -1.000000 -0.000000 0.000000
vn 0.000000 1.000000 -0.000000
vn 0.000000 1.000000 -0.000000
vn 0.000000 -1.000000 0.000000
vn 0.000000 -1.000000 0.000000
f 1//1 2//1 3//1
f 1//2 3//2 4//2
f 5//3 1//3 4//3
f 6//4 1//4 5//4
f 7//5 6//5 5//5
f 7//6 5//6 8//6
f 2//7 7//7 8//7
f 2//8 8//8 3//8
f 1//9 6//9 7//9
f 1//10 7//10 2//10
f 5//11 4//11 8//11
f 8//12 4//12 3//12
