{
  "accessors": [
    {
      "bufferView": 2,
      "componentType": 5126,
      "count": 66,
      "max": [
        0.90318769216537476,
        1.1166411638259888,
        0.90318757295608521
      ],
      "min": [
        -0.90318769216537476,
        1.1166411638259888,
        -0.90318769216537476
      ],
      "type": "VEC3"
    },
    {
      "bufferView": 2,
      "byteOffset": 792,
      "componentType": 5126,
      "count": 66,
      "max": [
        0.6257663369178772,
        1,
        0.6257663369178772
      ],
      "min": [
        -0.6257663369178772,
        0.78001052141189575,
        -0.6257663369178772
      ],
      "type": "VEC3"
    },
    {
      "bufferView": 1,
      "componentType": 5126,
      "count": 66,
      "max": [
        1,
        1
      ],
      "min": [
        0,
        1
      ],
      "type": "VEC2"
    },
    {
      "bufferView": 0,
      "componentType": 5125,
      "count": 282,
      "max": [
        65
      ],
      "min": [
        0
      ],
      "type": "SCALAR"
    },
    {
      "bufferView": 2,
      "byteOffset": 1584,
      "componentType": 5126,
      "count": 230,
      "max": [
        1.1269980669021606,
        1.4082701206207275,
        1.1269980669021606
      ],
      "min": [
        -1.1269980669021606,
        -1,
        -1.1269979476928711
      ],
      "type": "VEC3"
    },
    {
      "bufferView": 2,
      "byteOffset": 4344,
      "componentType": 5126,
      "count": 230,
      "max": [
        0.77116507291793823,
        0.8162117600440979,
        0.77116507291793823
      ],
      "min": [
        -0.77116507291793823,
        -0.76298642158508301,
        -0.77116507291793823
      ],
      "type": "VEC3"
    },
    {
      "bufferView": 1,
      "byteOffset": 528,
      "componentType": 5126,
      "count": 230,
      "max": [
        1,
        1
      ],
      "min": [
        0,
        0.01000000536441803
      ],
      "type": "VEC2"
    },
    {
      "bufferView": 0,
      "byteOffset": 1128,
      "componentType": 5125,
      "count": 1050,
      "max": [
        229
      ],
      "min": [
        0
      ],
      "type": "SCALAR"
    },
    {
      "bufferView": 2,
      "byteOffset": 7104,
      "componentType": 5126,
      "count": 31920,
      "max": [
        2.6691460609436035,
        2.7887997627258301,
        1.8842189311981201
      ],
      "min": [
        -2.6781294345855713,
        -1.2187826633453369,
        -3.0416650772094727
      ],
      "type": "VEC3"
    },
    {
      "bufferView": 2,
      "byteOffset": 390144,
      "componentType": 5126,
      "count": 31920,
      "max": [
        0.99947738647460938,
        0.99987632036209106,
        0.99788779020309448
      ],
      "min": [
        -0.99938756227493286,
        -0.99971669912338257,
        -0.99764144420623779
      ],
      "type": "VEC3"
    },
    {
      "bufferView": 1,
      "byteOffset": 2368,
      "componentType": 5126,
      "count": 31920,
      "max": [
        0.875,
        1
      ],
      "min": [
        0.125,
        0
      ],
      "type": "VEC2"
    },
    {
      "bufferView": 0,
      "byteOffset": 5328,
      "componentType": 5125,
      "count": 47880,
      "max": [
        31919
      ],
      "min": [
        0
      ],
      "type": "SCALAR"
    },
    {
      "bufferView": 2,
      "byteOffset": 773184,
      "componentType": 5126,
      "count": 42000,
      "max": [
        2.6691460609436035,
        2.7887997627258301,
        1.8842189311981201
      ],
      "min": [
        -2.6781294345855713,
        -1.2187826633453369,
        -3.0416650772094727
      ],
      "type": "VEC3"
    },
    {
      "bufferView": 2,
      "byteOffset": 1277184,
      "componentType": 5126,
      "count": 42000,
      "max": [
        0.99947738647460938,
        0.99987632036209106,
        0.99788779020309448
      ],
      "min": [
        -0.99938756227493286,
        -0.99971669912338257,
        -0.99764144420623779
      ],
      "type": "VEC3"
    },
    {
      "bufferView": 1,
      "byteOffset": 257728,
      "componentType": 5126,
      "count": 42000,
      "max": [
        0.875,
        1
      ],
      "min": [
        0.125,
        0
      ],
      "type": "VEC2"
    },
    {
      "bufferView": 0,
      "byteOffset": 196848,
      "componentType": 5125,
      "count": 63000,
      "max": [
        41999
      ],
      "min": [
        0
      ],
      "type": "SCALAR"
    },
    {
      "bufferView": 2,
      "byteOffset": 1781184,
      "componentType": 5126,
      "count": 42000,
      "max": [
        2.6691460609436035,
        2.7887997627258301,
        1.8842189311981201
      ],
      "min": [
        -2.6781294345855713,
        -1.2187826633453369,
        -3.0416650772094727
      ],
      "type": "VEC3"
    },
    {
      "bufferView": 2,
      "byteOffset": 2285184,
      "componentType": 5126,
      "count": 42000,
      "max": [
        0.99947738647460938,
        0.99987632036209106,
        0.99788779020309448
      ],
      "min": [
        -0.99938756227493286,
        -0.99971669912338257,
        -0.99764144420623779
      ],
      "type": "VEC3"
    },
    {
      "bufferView": 1,
      "byteOffset": 593728,
      "componentType": 5126,
      "count": 42000,
      "max": [
        0.875,
        1
      ],
      "min": [
        0.125,
        0
      ],
      "type": "VEC2"
    },
    {
      "bufferView": 0,
      "byteOffset": 448848,
      "componentType": 5125,
      "count": 63000,
      "max": [
        41999
      ],
      "min": [
        0
      ],
      "type": "SCALAR"
    },
    {
      "bufferView": 2,
      "byteOffset": 2789184,
      "componentType": 5126,
      "count": 42000,
      "max": [
        2.6691460609436035,
        2.7887997627258301,
        1.8842189311981201
      ],
      "min": [
        -2.6781294345855713,
        -1.2187826633453369,
        -3.0416650772094727
      ],
      "type": "VEC3"
    },
    {
      "bufferView": 2,
      "byteOffset": 3293184,
      "componentType": 5126,
      "count": 42000,
      "max": [
        0.99947738647460938,
        0.99987632036209106,
        0.99788779020309448
      ],
      "min": [
        -0.99938756227493286,
        -0.99971669912338257,
        -0.99764144420623779
      ],
      "type": "VEC3"
    },
    {
      "bufferView": 1,
      "byteOffset": 929728,
      "componentType": 5126,
      "count": 42000,
      "max": [
        0.875,
        1
      ],
      "min": [
        0.125,
        0
      ],
      "type": "VEC2"
    },
    {
      "bufferView": 0,
      "byteOffset": 700848,
      "componentType": 5125,
      "count": 63000,
      "max": [
        41999
      ],
      "min": [
        0
      ],
      "type": "SCALAR"
    },
    {
      "bufferView": 2,
      "byteOffset": 3797184,
      "componentType": 5126,
      "count": 42000,
      "max": [
        2.6691460609436035,
        2.7887997627258301,
        1.8842189311981201
      ],
      "min": [
        -2.6781294345855713,
        -1.2187826633453369,
        -3.0416650772094727
      ],
      "type": "VEC3"
    },
    {
      "bufferView": 2,
      "byteOffset": 4301184,
      "componentType": 5126,
      "count": 42000,
      "max": [
        0.99947738647460938,
        0.99987632036209106,
        0.99788779020309448
      ],
      "min": [
        -0.99938756227493286,
        -0.99971669912338257,
        -0.99764144420623779
      ],
      "type": "VEC3"
    },
    {
      "bufferView": 1,
      "byteOffset": 1265728,
      "componentType": 5126,
      "count": 42000,
      "max": [
        0.875,
        1
      ],
      "min": [
        0.125,
        0
      ],
      "type": "VEC2"
    },
    {
      "bufferView": 0,
      "byteOffset": 952848,
      "componentType": 5125,
      "count": 63000,
      "max": [
        41999
      ],
      "min": [
        0
      ],
      "type": "SCALAR"
    }
  ],
  "asset": {
    "extras": {
      "author": "e.shifflett (https://sketchfab.com/e.shifflett)",
      "license": "CC-BY-4.0 (http://creativecommons.org/licenses/by/4.0/)",
      "source": "https://sketchfab.com/3d-models/3d-sketchbook-week-8-plant-228fbbf04b94478ca711109e5cb796d4",
      "title": "3D Sketchbook Week 8- Plant"
    },
    "generator": "Sketchfab-10.36.0",
    "version": "2.0"
  },
  "bufferViews": [
    {
      "buffer": 0,
      "byteLength": 1204848,
      "byteOffset": 0,
      "name": "floatBufferViews",
      "target": 34963
    },
    {
      "buffer": 0,
      "byteLength": 1601728,
      "byteOffset": 1204848,
      "byteStride": 8,
      "name": "floatBufferViews",
      "target": 34962
    },
    {
      "buffer": 0,
      "byteLength": 4805184,
      "byteOffset": 2806576,
      "byteStride": 12,
      "name": "floatBufferViews",
      "target": 34962
    }
  ],
  "buffers": [
    {
      "byteLength": 7611760,
      "uri": "scene.bin"
    }
  ],
  "materials": [
    {
      "doubleSided": true,
      "emissiveFactor": [
        0,
        0,
        0
      ],
      "name": "Dirt_color",
      "pbrMetallicRoughness": {
        "baseColorFactor": [
          0.114936,
          0.013265000000000001,
          0,
          1
        ],
        "metallicFactor": 0,
        "roughnessFactor": 0.5
      }
    },
    {
      "doubleSided": true,
      "emissiveFactor": [
        0,
        0,
        0
      ],
      "name": "material",
      "pbrMetallicRoughness": {
        "baseColorFactor": [
          0.80000000000000004,
          0.112926,
          0.0118715,
          1
        ],
        "metallicFactor": 0,
        "roughnessFactor": 1
      }
    },
    {
      "doubleSided": true,
      "emissiveFactor": [
        0,
        0,
        0
      ],
      "name": "plant",
      "pbrMetallicRoughness": {
        "baseColorFactor": [
          0.086618299999999995,
          0.22658400000000001,
          0.026474399999999999,
          1
        ],
        "metallicFactor": 0,
        "roughnessFactor": 1
      }
    }
  ],
  "meshes": [
    {
      "primitives": [
        {
          "attributes": {
            "NORMAL": 1,
            "POSITION": 0,
            "TEXCOORD_0": 2
          },
          "indices": 3,
          "material": 0,
          "mode": 4
        }
      ]
    },
    {
      "primitives": [
        {
          "attributes": {
            "NORMAL": 5,
            "POSITION": 4,
            "TEXCOORD_0": 6
          },
          "indices": 7,
          "material": 1,
          "mode": 4
        }
      ]
    },
    {
      "primitives": [
        {
          "attributes": {
            "NORMAL": 9,
            "POSITION": 8,
            "TEXCOORD_0": 10
          },
          "indices": 11,
          "material": 2,
          "mode": 4
        }
      ]
    },
    {
      "primitives": [
        {
          "attributes": {
            "NORMAL": 13,
            "POSITION": 12,
            "TEXCOORD_0": 14
          },
          "indices": 15,
          "material": 2,
          "mode": 4
        }
      ]
    },
    {
      "primitives": [
        {
          "attributes": {
            "NORMAL": 17,
            "POSITION": 16,
            "TEXCOORD_0": 18
          },
          "indices": 19,
          "material": 2,
          "mode": 4
        }
      ]
    },
    {
      "primitives": [
        {
          "attributes": {
            "NORMAL": 21,
            "POSITION": 20,
            "TEXCOORD_0": 22
          },
          "indices": 23,
          "material": 2,
          "mode": 4
        }
      ]
    },
    {
      "primitives": [
        {
          "attributes": {
            "NORMAL": 25,
            "POSITION": 24,
            "TEXCOORD_0": 26
          },
          "indices": 27,
          "material": 2,
          "mode": 4
        }
      ]
    }
  ],
  "nodes": [
    {
      "children": [
        1
      ],
      "name": "RootNode (gltf orientation matrix)",
      "rotation": [
        -0.70710678118654746,
        -0,
        -0,
        0.70710678118654757
      ]
    },
    {
      "children": [
        2
      ],
      "name": "RootNode (model correction matrix)"
    },
    {
      "children": [
        3
      ],
      "name": "root"
    },
    {
      "children": [
        4,
        7,
        9,
        11,
        13,
        15
      ],
      "matrix": [
        1,
        0,
        0,
        0,
        0,
        2.2204460492503131e-16,
        1,
        0,
        0,
        -1,
        2.2204460492503131e-16,
        0,
        0,
        0,
        0,
        1
      ],
      "name": "GLTF_SceneRootNode"
    },
    {
      "children": [
        5,
        6
      ],
      "matrix": [
        1,
        0,
        0,
        0,
        0,
        1,
        0,
        0,
        0,
        0,
        1,
        0,
        0,
        1,
        0,
        1
      ],
      "name": "pot_2"
    },
    {
      "mesh": 0,
      "name": ""
    },
    {
      "mesh": 1,
      "name": ""
    },
    {
      "children": [
        8
      ],
      "matrix": [
        0.28449306240252942,
        -0.0444752345390904,
        0.87553911809992879,
        0,
        -0.50203729609693348,
        0.74634049822877402,
        0.20104161295915798,
        0,
        -0.71868310981700245,
        -0.53896294369179942,
        0.20614710610753204,
        0,
        -0.013527855277061462,
        1.6767371892929077,
        -0.12295840680599213,
        1
      ],
      "name": "plant_3"
    },
    {
      "mesh": 2,
      "name": ""
    },
    {
      "children": [
        10
      ],
      "matrix": [
        0.68323427146964733,
        -0.056007523326035355,
        0.32405397243169554,
        0,
        -0.15507305695521315,
        0.604024328479841,
        0.43135139714930337,
        0,
        -0.29000030049246317,
        -0.45494480113724312,
        0.53280572731626441,
        0,
        -0.022241614758968353,
        2.2827844619750977,
        0.055208355188369751,
        1
      ],
      "name": "plant.001_4"
    },
    {
      "mesh": 3,
      "name": ""
    },
    {
      "children": [
        12
      ],
      "matrix": [
        -0.085442937601118846,
        -0.089401620661053394,
        0.52828683903266149,
        0,
        -0.34093037005891907,
        0.42176202379028965,
        0.016233825057180459,
        0,
        -0.41333546358447365,
        -0.32940002607114355,
        -0.1225953168141049,
        0,
        -0.030458018183708191,
        2.8881642818450928,
        -0.045239895582199097,
        1
      ],
      "name": "plant.002_5"
    },
    {
      "mesh": 4,
      "name": ""
    },
    {
      "children": [
        14
      ],
      "matrix": [
        -0.38746137817428478,
        -0.042122881079120773,
        -0.17974956374492754,
        0,
        0.082893663862597333,
        0.33369368371370017,
        -0.25688091607035585,
        0,
        0.1649633101312579,
        -0.26661736032786509,
        -0.29310902920294957,
        0,
        0.11245623230934143,
        3.2465858459472656,
        0.34808105230331421,
        1
      ],
      "name": "plant.003_6"
    },
    {
      "mesh": 5,
      "name": ""
    },
    {
      "children": [
        16
      ],
      "matrix": [
        0.048016399625191601,
        -0.064351083843686971,
        -0.36271139706727235,
        0,
        0.26593074595090838,
        0.2591735864348676,
        -0.010777340475491261,
        0,
        0.25491471672784205,
        -0.25825227593139372,
        0.079564361647776388,
        0,
        -0.16537204384803772,
        3.3553328514099121,
        -0.11913764476776123,
        1
      ],
      "name": "plant.004_7"
    },
    {
      "mesh": 6,
      "name": ""
    }
  ],
  "scene": 0,
  "scenes": [
    {
      "name": "OSG_Scene",
      "nodes": [
        0
      ]
    }
  ]
}

