<?xml version='1.0' encoding='UTF-8' standalone='no'?>
<svg xmlns:freecad="http://www.freecadweb.org/wiki/index.php?title=Svg_Namespace" width="210mm" xmlns:xlink="http://www.w3.org/1999/xlink" viewBox="0 0 2100 2970" xmlns="http://www.w3.org/2000/svg" xmlns:dc="http://purl.org/dc/elements/1.1/" baseProfile="tiny" height="297mm" xmlns:svg="http://www.w3.org/2000/svg" xmlns:cc="http://creativecommons.org/ns#" xmlns:rdf="http://www.w3.org/1999/02/22-rdf-syntax-ns#" version="1.2">
 <title>FreeCAD SVG Export</title>
 <desc>Drawing page: Page001 exported from FreeCAD document: patent_drawing_closed</desc>
 <defs/>
 <g id="Page001">
  <g fill-rule="evenodd" id="DrawingContent" fill="none" stroke-linecap="square" stroke-linejoin="bevel" stroke="black" stroke-width="1">
   <g font-style="normal" stroke-opacity="1" fill="none" stroke-linecap="square" font-weight="400" stroke-linejoin="bevel" font-family="Sans Serif" stroke="#000000" stroke-width="1" transform="matrix(1,0,0,1,987.738,1654.79)" font-size="31.75">
    <rect y="0" width="0" height="0" x="0"/>
   </g>
   <g font-style="normal" fill="#ffffff" font-weight="400" font-family="Sans Serif" stroke="none" fill-opacity="1" transform="matrix(1,0,0,1,987.738,1654.79)" font-size="31.75">
    <path vector-effect="non-scaling-stroke" fill-rule="evenodd" d="M444.498,-793.747 L444.498,793.747 L444.498,920.746 L-444.498,920.746 L-444.498,793.747 L-444.498,-793.747 L-444.498,793.747 L-444.498,-793.747 L-5.29165,-793.747 L-444.498,-793.747 L-444.498,793.747 L-5.29165,793.747 L-5.29165,772.58 L-5.29165,-793.747 L4.69804,-793.747 L444.498,-793.747 L444.498,-920.746 L-444.498,-920.746 L-444.498,-793.747 L-5.29165,-793.747 L-444.498,-793.747 L-444.498,-920.746 L444.498,-920.746 L444.498,-793.747"/>
   </g>
   <g font-style="normal" stroke-opacity="1" fill="none" stroke-linecap="square" font-weight="400" stroke-linejoin="bevel" font-family="Sans Serif" stroke="#000000" stroke-width="1" transform="matrix(1,0,0,1,987.738,1654.79)" font-size="31.75">
    <rect y="0" width="0" height="0" x="0"/>
   </g>
   <g font-style="normal" fill="#ffffff" font-weight="400" font-family="Sans Serif" stroke="none" fill-opacity="1" transform="matrix(1,0,0,1,987.738,1654.79)" font-size="31.75">
    <path vector-effect="non-scaling-stroke" fill-rule="evenodd" d="M444.498,-793.747 L444.498,793.747 L444.498,920.746 L-444.498,920.746 L-444.498,793.747 L8.52164e-05,793.747 L4.99496,793.747 L444.498,793.747 L4.99496,793.747 L444.498,793.747 L4.99496,793.747 L5.29165,772.58 L5.29165,-793.747 L444.498,-793.747"/>
   </g>
   <g font-style="normal" stroke-opacity="1" fill="none" stroke-linecap="square" font-weight="400" stroke-linejoin="bevel" font-family="Sans Serif" stroke="#000000" stroke-width="1" transform="matrix(1,0,0,1,987.738,1654.79)" font-size="31.75">
    <rect y="0" width="0" height="0" x="0"/>
   </g>
   <g font-style="normal" fill="#ffffff" font-weight="400" font-family="Sans Serif" stroke="none" fill-opacity="1" transform="matrix(1,0,0,1,987.738,1654.79)" font-size="31.75">
    <path vector-effect="non-scaling-stroke" fill-rule="evenodd" d="M404.811,-761.997 L404.811,761.997 L44.979,761.997 L44.979,-761.997 L404.811,-761.997"/>
   </g>
   <g font-style="normal" stroke-opacity="1" fill="none" stroke-linecap="square" font-weight="400" stroke-linejoin="bevel" font-family="Sans Serif" stroke="#000000" stroke-width="1" transform="matrix(1,0,0,1,987.738,1654.79)" font-size="31.75">
    <rect y="0" width="0" height="0" x="0"/>
   </g>
   <g font-style="normal" fill="#ffffff" font-weight="400" font-family="Sans Serif" stroke="none" fill-opacity="1" transform="matrix(1,0,0,1,987.738,1654.79)" font-size="31.75">
    <path vector-effect="non-scaling-stroke" fill-rule="evenodd" d="M-47.6248,-761.997 L-47.6248,761.997 L-407.457,761.997 L-407.457,-761.997 L-47.6248,-761.997"/>
   </g>
   <g font-style="normal" stroke-opacity="1" fill="none" stroke-linecap="square" font-weight="400" stroke-linejoin="bevel" font-family="Sans Serif" stroke="#000000" stroke-width="1" transform="matrix(1,0,0,1,987.738,1654.79)" font-size="31.75">
    <rect y="0" width="0" height="0" x="0"/>
   </g>
   <g font-style="normal" fill="#ffffff" font-weight="400" font-family="Sans Serif" stroke="none" fill-opacity="1" transform="matrix(1,0,0,1,987.738,1654.79)" font-size="31.75">
    <path vector-effect="non-scaling-stroke" fill-rule="evenodd" d="M396.895,-754.081 L396.895,754.081 L52.8953,754.081 L52.8953,-754.081 L396.895,-754.081"/>
   </g>
   <g font-style="normal" stroke-opacity="1" fill="none" stroke-linecap="square" font-weight="400" stroke-linejoin="bevel" font-family="Sans Serif" stroke="#000000" stroke-width="1" transform="matrix(1,0,0,1,987.738,1654.79)" font-size="31.75">
    <rect y="0" width="0" height="0" x="0"/>
   </g>
   <g font-style="normal" fill="#ffffff" font-weight="400" font-family="Sans Serif" stroke="none" fill-opacity="1" transform="matrix(1,0,0,1,987.738,1654.79)" font-size="31.75">
    <path vector-effect="non-scaling-stroke" fill-rule="evenodd" d="M-55.5411,-754.081 L-55.5411,754.081 L-399.54,754.081 L-399.54,-754.081 L-55.5411,-754.081"/>
   </g>
   <g font-style="normal" stroke-opacity="1" fill="none" stroke-linecap="square" font-weight="400" stroke-linejoin="bevel" font-family="Sans Serif" stroke="#000000" stroke-width="1" transform="matrix(1,0,0,1,987.738,1654.79)" font-size="31.75">
    <rect y="0" width="0" height="0" x="0"/>
   </g>
   <g font-style="normal" fill="#ffffff" font-weight="400" font-family="Sans Serif" stroke="none" fill-opacity="1" transform="matrix(1,0,0,1,987.738,1654.79)" font-size="31.75">
    <path vector-effect="non-scaling-stroke" fill-rule="evenodd" d="M293,-524.105 L293,-143.107 L81.3342,-143.107 L81.3343,-524.105 L293,-524.105"/>
   </g>
   <g font-style="normal" stroke-opacity="1" fill="none" stroke-linecap="square" font-weight="400" stroke-linejoin="bevel" font-family="Sans Serif" stroke="#000000" stroke-width="1" transform="matrix(1,0,0,1,987.738,1654.79)" font-size="31.75">
    <rect y="0" width="0" height="0" x="0"/>
   </g>
   <g font-style="normal" fill="#ffffff" font-weight="400" font-family="Sans Serif" stroke="none" fill-opacity="1" transform="matrix(1,0,0,1,987.738,1654.79)" font-size="31.75">
    <path vector-effect="non-scaling-stroke" fill-rule="evenodd" d="M444.498,-793.747 L4.99485,-793.747 L5.29165,772.58 L-5.29165,772.58 L-5.29165,-793.747 L4.99485,-793.747 L444.498,-793.747"/>
   </g>
   <g font-style="normal" stroke-opacity="1" fill="none" stroke-linecap="square" font-weight="400" stroke-linejoin="bevel" font-family="Sans Serif" stroke="#000000" stroke-width="1" transform="matrix(1,0,0,1,987.738,1654.79)" font-size="31.75">
    <rect y="0" width="0" height="0" x="0"/>
   </g>
   <g font-style="normal" fill="#ffffff" font-weight="400" font-family="Sans Serif" stroke="none" fill-opacity="1" transform="matrix(1,0,0,1,987.738,1654.79)" font-size="31.75">
    <path vector-effect="non-scaling-stroke" fill-rule="evenodd" d="M44.979,761.997 L52.8953,754.081 L52.8953,-754.081 L44.979,-761.997 L44.979,761.997"/>
   </g>
   <g font-style="normal" stroke-opacity="1" fill="none" stroke-linecap="square" font-weight="400" stroke-linejoin="bevel" font-family="Sans Serif" stroke="#000000" stroke-width="1" transform="matrix(1,0,0,1,987.738,1654.79)" font-size="31.75">
    <rect y="0" width="0" height="0" x="0"/>
   </g>
   <g font-style="normal" fill="#ffffff" font-weight="400" font-family="Sans Serif" stroke="none" fill-opacity="1" transform="matrix(1,0,0,1,987.738,1654.79)" font-size="31.75">
    <path vector-effect="non-scaling-stroke" fill-rule="evenodd" d="M-407.457,761.997 L-399.54,754.081 L-399.54,-754.081 L-407.457,-761.997 L-407.457,761.997"/>
   </g>
   <g font-style="normal" stroke-opacity="1" fill="none" stroke-linecap="square" font-weight="400" stroke-linejoin="bevel" font-family="Sans Serif" stroke="#000000" stroke-width="1" transform="matrix(1,0,0,1,987.738,1654.79)" font-size="31.75">
    <rect y="0" width="0" height="0" x="0"/>
   </g>
   <g font-style="normal" fill="#ffffff" font-weight="400" font-family="Sans Serif" stroke="none" fill-opacity="1" transform="matrix(1,0,0,1,987.738,1654.79)" font-size="31.75">
    <path vector-effect="non-scaling-stroke" fill-rule="evenodd" d="M-47.6248,-761.997 L-47.6248,761.997 L-55.5411,754.081 L-55.5411,-754.081 L-47.6248,-761.997"/>
   </g>
   <g font-style="normal" stroke-opacity="1" fill="none" stroke-linecap="square" font-weight="400" stroke-linejoin="bevel" font-family="Sans Serif" stroke="#000000" stroke-width="1" transform="matrix(1,0,0,1,987.738,1654.79)" font-size="31.75">
    <rect y="0" width="0" height="0" x="0"/>
   </g>
   <g font-style="normal" fill="#ffffff" font-weight="400" font-family="Sans Serif" stroke="none" fill-opacity="1" transform="matrix(1,0,0,1,987.738,1654.79)" font-size="31.75">
    <path vector-effect="non-scaling-stroke" fill-rule="evenodd" d="M404.811,-761.997 L404.811,761.997 L396.895,754.081 L396.895,-754.081 L404.811,-761.997"/>
   </g>
   <g font-style="normal" stroke-opacity="1" fill="none" stroke-linecap="square" font-weight="400" stroke-linejoin="bevel" font-family="Sans Serif" stroke="#000000" stroke-width="1" transform="matrix(1,0,0,1,987.738,1654.79)" font-size="31.75">
    <rect y="0" width="0" height="0" x="0"/>
   </g>
   <g font-style="normal" fill="#ffffff" font-weight="400" font-family="Sans Serif" stroke="none" fill-opacity="1" transform="matrix(1,0,0,1,987.738,1654.79)" font-size="31.75">
    <path vector-effect="non-scaling-stroke" fill-rule="evenodd" d="M-35.3578,72.9461 L-35.3578,-138.72 L-14.1912,-138.72 L-14.1912,72.9461 L-35.3578,72.9461"/>
   </g>
   <g font-style="normal" stroke-opacity="1" fill="none" stroke-linecap="square" font-weight="400" stroke-linejoin="bevel" font-family="Sans Serif" stroke="#000000" stroke-width="1" transform="matrix(1,0,0,1,987.738,1654.79)" font-size="31.75">
    <rect y="0" width="0" height="0" x="0"/>
   </g>
   <g font-style="normal" fill="#ffffff" font-weight="400" font-family="Sans Serif" stroke="none" fill-opacity="1" transform="matrix(1,0,0,1,987.738,1654.79)" font-size="31.75">
    <path vector-effect="non-scaling-stroke" fill-rule="evenodd" d="M12.3276,72.9461 L12.3276,-138.72 L33.4942,-138.72 L33.4942,72.9461 L12.3276,72.9461"/>
   </g>
   <g font-style="normal" stroke-opacity="1" fill="none" stroke-linecap="square" font-weight="400" stroke-linejoin="bevel" font-family="Sans Serif" stroke="#000000" stroke-width="1" transform="matrix(1,0,0,1,987.738,1654.79)" font-size="31.75">
    <rect y="0" width="0" height="0" x="0"/>
   </g>
   <g font-style="normal" fill="#ffffff" font-weight="400" font-family="Sans Serif" stroke="none" fill-opacity="1" transform="matrix(1,0,0,1,987.738,1654.79)" font-size="31.75">
    <path vector-effect="non-scaling-stroke" fill-rule="evenodd" d="M404.811,761.997 L396.895,754.081 L52.8953,754.081 L44.979,761.997 L404.811,761.997"/>
   </g>
   <g font-style="normal" stroke-opacity="1" fill="none" stroke-linecap="square" font-weight="400" stroke-linejoin="bevel" font-family="Sans Serif" stroke="#000000" stroke-width="1" transform="matrix(1,0,0,1,987.738,1654.79)" font-size="31.75">
    <rect y="0" width="0" height="0" x="0"/>
   </g>
   <g font-style="normal" fill="#ffffff" font-weight="400" font-family="Sans Serif" stroke="none" fill-opacity="1" transform="matrix(1,0,0,1,987.738,1654.79)" font-size="31.75">
    <path vector-effect="non-scaling-stroke" fill-rule="evenodd" d="M-407.457,-761.997 L-47.6248,-761.997 L-55.5411,-754.081 L-399.54,-754.081 L-407.457,-761.997"/>
   </g>
   <g font-style="normal" stroke-opacity="1" fill="none" stroke-linecap="square" font-weight="400" stroke-linejoin="bevel" font-family="Sans Serif" stroke="#000000" stroke-width="1" transform="matrix(1,0,0,1,987.738,1654.79)" font-size="31.75">
    <rect y="0" width="0" height="0" x="0"/>
   </g>
   <g font-style="normal" fill="#ffffff" font-weight="400" font-family="Sans Serif" stroke="none" fill-opacity="1" transform="matrix(1,0,0,1,987.738,1654.79)" font-size="31.75">
    <path vector-effect="non-scaling-stroke" fill-rule="evenodd" d="M-47.6248,761.997 L-55.5411,754.081 L-399.54,754.081 L-407.457,761.997 L-47.6248,761.997"/>
   </g>
   <g font-style="normal" stroke-opacity="1" fill="none" stroke-linecap="square" font-weight="400" stroke-linejoin="bevel" font-family="Sans Serif" stroke="#000000" stroke-width="1" transform="matrix(1,0,0,1,987.738,1654.79)" font-size="31.75">
    <rect y="0" width="0" height="0" x="0"/>
   </g>
   <g font-style="normal" fill="#ffffff" font-weight="400" font-family="Sans Serif" stroke="none" fill-opacity="1" transform="matrix(1,0,0,1,987.738,1654.79)" font-size="31.75">
    <path vector-effect="non-scaling-stroke" fill-rule="evenodd" d="M44.979,-761.997 L404.811,-761.997 L396.895,-754.081 L52.8953,-754.081 L44.979,-761.997"/>
   </g>
   <g font-style="normal" stroke-opacity="1" fill="none" stroke-linecap="square" font-weight="400" stroke-linejoin="bevel" font-family="Sans Serif" stroke="#000000" stroke-width="1" transform="matrix(1,0,0,1,987.738,1654.79)" font-size="31.75">
    <rect y="0" width="0" height="0" x="0"/>
   </g>
   <g font-style="normal" fill="#ffffff" font-weight="400" font-family="Sans Serif" stroke="none" fill-opacity="1" transform="matrix(1,0,0,1,987.738,1654.79)" font-size="31.75">
    <path vector-effect="non-scaling-stroke" fill-rule="evenodd" d="M4.99496,793.747 L8.52164e-05,793.747 L-444.498,793.747 L-5.29165,793.747 L-5.29165,772.58 L5.29165,772.58 L4.99496,793.747"/>
   </g>
   <g font-style="normal" stroke-opacity="1" fill="none" stroke-linecap="square" font-weight="400" stroke-linejoin="bevel" font-family="Sans Serif" stroke="#000000" stroke-width="1" transform="matrix(1,0,0,1,987.738,1654.79)" font-size="31.75">
    <rect y="0" width="0" height="0" x="0"/>
   </g>
   <g font-style="normal" stroke-opacity="1" fill="none" stroke-linecap="round" font-weight="400" stroke-linejoin="bevel" font-family="Sans Serif" stroke="#000000" stroke-width="7" transform="matrix(1,0,0,1,987.738,1654.79)" font-size="31.75">
    <path vector-effect="none" fill-rule="evenodd" d="M8.52164e-05,793.747 L5.29165,793.747"/>
   </g>
   <g font-style="normal" stroke-opacity="1" fill="none" stroke-linecap="round" font-weight="400" stroke-linejoin="bevel" font-family="Sans Serif" stroke="#000000" stroke-width="7" transform="matrix(1,0,0,1,987.738,1654.79)" font-size="31.75">
    <path vector-effect="none" fill-rule="evenodd" d="M-444.498,-793.747 L-444.498,793.747"/>
   </g>
   <g font-style="normal" stroke-opacity="1" fill="none" stroke-linecap="round" font-weight="400" stroke-linejoin="bevel" font-family="Sans Serif" stroke="#000000" stroke-width="7" transform="matrix(1,0,0,1,987.738,1654.79)" font-size="31.75">
    <path vector-effect="none" fill-rule="evenodd" d="M-5.29165,772.58 L5.29165,772.58"/>
   </g>
   <g font-style="normal" stroke-opacity="1" fill="none" stroke-linecap="round" font-weight="400" stroke-linejoin="bevel" font-family="Sans Serif" stroke="#000000" stroke-width="7" transform="matrix(1,0,0,1,987.738,1654.79)" font-size="31.75">
    <path vector-effect="none" fill-rule="evenodd" d="M-47.6248,761.997 L-407.457,761.997"/>
   </g>
   <g font-style="normal" stroke-opacity="1" fill="none" stroke-linecap="round" font-weight="400" stroke-linejoin="bevel" font-family="Sans Serif" stroke="#000000" stroke-width="7" transform="matrix(1,0,0,1,987.738,1654.79)" font-size="31.75">
    <path vector-effect="none" fill-rule="evenodd" d="M-47.6248,-761.997 L-47.6248,761.997"/>
   </g>
   <g font-style="normal" stroke-opacity="1" fill="none" stroke-linecap="round" font-weight="400" stroke-linejoin="bevel" font-family="Sans Serif" stroke="#000000" stroke-width="7" transform="matrix(1,0,0,1,987.738,1654.79)" font-size="31.75">
    <path vector-effect="none" fill-rule="evenodd" d="M-47.6248,761.997 L-55.5411,754.081"/>
   </g>
   <g font-style="normal" stroke-opacity="1" fill="none" stroke-linecap="round" font-weight="400" stroke-linejoin="bevel" font-family="Sans Serif" stroke="#000000" stroke-width="7" transform="matrix(1,0,0,1,987.738,1654.79)" font-size="31.75">
    <path vector-effect="none" fill-rule="evenodd" d="M-55.5411,754.081 L-399.54,754.081"/>
   </g>
   <g font-style="normal" stroke-opacity="1" fill="none" stroke-linecap="round" font-weight="400" stroke-linejoin="bevel" font-family="Sans Serif" stroke="#000000" stroke-width="7" transform="matrix(1,0,0,1,987.738,1654.79)" font-size="31.75">
    <path vector-effect="none" fill-rule="evenodd" d="M-407.457,761.997 L-399.54,754.081"/>
   </g>
   <g font-style="normal" stroke-opacity="1" fill="none" stroke-linecap="round" font-weight="400" stroke-linejoin="bevel" font-family="Sans Serif" stroke="#000000" stroke-width="7" transform="matrix(1,0,0,1,987.738,1654.79)" font-size="31.75">
    <path vector-effect="none" fill-rule="evenodd" d="M-5.29165,-793.747 L-5.29165,793.747"/>
   </g>
   <g font-style="normal" stroke-opacity="1" fill="none" stroke-linecap="round" font-weight="400" stroke-linejoin="bevel" font-family="Sans Serif" stroke="#000000" stroke-width="7" transform="matrix(1,0,0,1,987.738,1654.79)" font-size="31.75">
    <path vector-effect="none" fill-rule="evenodd" d="M-5.29165,-793.747 L-444.498,-793.747"/>
   </g>
   <g font-style="normal" stroke-opacity="1" fill="none" stroke-linecap="round" font-weight="400" stroke-linejoin="bevel" font-family="Sans Serif" stroke="#000000" stroke-width="7" transform="matrix(1,0,0,1,987.738,1654.79)" font-size="31.75">
    <path vector-effect="none" fill-rule="evenodd" d="M-5.29165,793.747 L-444.498,793.747"/>
   </g>
   <g font-style="normal" stroke-opacity="1" fill="none" stroke-linecap="round" font-weight="400" stroke-linejoin="bevel" font-family="Sans Serif" stroke="#000000" stroke-width="7" transform="matrix(1,0,0,1,987.738,1654.79)" font-size="31.75">
    <path vector-effect="none" fill-rule="evenodd" d="M-444.498,-793.747 L-444.498,793.747"/>
   </g>
   <g font-style="normal" stroke-opacity="1" fill="none" stroke-linecap="round" font-weight="400" stroke-linejoin="bevel" font-family="Sans Serif" stroke="#000000" stroke-width="7" transform="matrix(1,0,0,1,987.738,1654.79)" font-size="31.75">
    <path vector-effect="none" fill-rule="evenodd" d="M-407.457,761.997 L-407.457,-761.997"/>
   </g>
   <g font-style="normal" stroke-opacity="1" fill="none" stroke-linecap="round" font-weight="400" stroke-linejoin="bevel" font-family="Sans Serif" stroke="#000000" stroke-width="7" transform="matrix(1,0,0,1,987.738,1654.79)" font-size="31.75">
    <path vector-effect="none" fill-rule="evenodd" d="M-407.457,-761.997 L-47.6248,-761.997"/>
   </g>
   <g font-style="normal" stroke-opacity="1" fill="none" stroke-linecap="round" font-weight="400" stroke-linejoin="bevel" font-family="Sans Serif" stroke="#000000" stroke-width="7" transform="matrix(1,0,0,1,987.738,1654.79)" font-size="31.75">
    <path vector-effect="none" fill-rule="evenodd" d="M-47.6248,-761.997 L-55.5411,-754.081"/>
   </g>
   <g font-style="normal" stroke-opacity="1" fill="none" stroke-linecap="round" font-weight="400" stroke-linejoin="bevel" font-family="Sans Serif" stroke="#000000" stroke-width="7" transform="matrix(1,0,0,1,987.738,1654.79)" font-size="31.75">
    <path vector-effect="none" fill-rule="evenodd" d="M-55.5411,-754.081 L-55.5411,754.081"/>
   </g>
   <g font-style="normal" stroke-opacity="1" fill="none" stroke-linecap="round" font-weight="400" stroke-linejoin="bevel" font-family="Sans Serif" stroke="#000000" stroke-width="7" transform="matrix(1,0,0,1,987.738,1654.79)" font-size="31.75">
    <path vector-effect="none" fill-rule="evenodd" d="M-399.54,754.081 L-399.54,-754.081"/>
   </g>
   <g font-style="normal" stroke-opacity="1" fill="none" stroke-linecap="round" font-weight="400" stroke-linejoin="bevel" font-family="Sans Serif" stroke="#000000" stroke-width="7" transform="matrix(1,0,0,1,987.738,1654.79)" font-size="31.75">
    <path vector-effect="none" fill-rule="evenodd" d="M-399.54,-754.081 L-55.5411,-754.081"/>
   </g>
   <g font-style="normal" stroke-opacity="1" fill="none" stroke-linecap="round" font-weight="400" stroke-linejoin="bevel" font-family="Sans Serif" stroke="#000000" stroke-width="7" transform="matrix(1,0,0,1,987.738,1654.79)" font-size="31.75">
    <path vector-effect="none" fill-rule="evenodd" d="M-407.457,-761.997 L-399.54,-754.081"/>
   </g>
   <g font-style="normal" stroke-opacity="1" fill="none" stroke-linecap="round" font-weight="400" stroke-linejoin="bevel" font-family="Sans Serif" stroke="#000000" stroke-width="7" transform="matrix(1,0,0,1,987.738,1654.79)" font-size="31.75">
    <path vector-effect="none" fill-rule="evenodd" d="M4.69804,-793.747 L-5.29165,-793.747"/>
   </g>
   <g font-style="normal" stroke-opacity="1" fill="none" stroke-linecap="round" font-weight="400" stroke-linejoin="bevel" font-family="Sans Serif" stroke="#000000" stroke-width="7" transform="matrix(1,0,0,1,987.738,1654.79)" font-size="31.75">
    <path vector-effect="none" fill-rule="evenodd" d="M5.29165,793.747 L4.69827,793.747"/>
   </g>
   <g font-style="normal" stroke-opacity="1" fill="none" stroke-linecap="round" font-weight="400" stroke-linejoin="bevel" font-family="Sans Serif" stroke="#000000" stroke-width="7" transform="matrix(1,0,0,1,987.738,1654.79)" font-size="31.75">
    <path vector-effect="none" fill-rule="evenodd" d="M-444.498,-920.746 L-444.498,-793.747"/>
   </g>
   <g font-style="normal" stroke-opacity="1" fill="none" stroke-linecap="round" font-weight="400" stroke-linejoin="bevel" font-family="Sans Serif" stroke="#000000" stroke-width="7" transform="matrix(1,0,0,1,987.738,1654.79)" font-size="31.75">
    <path vector-effect="none" fill-rule="evenodd" d="M444.498,-920.746 L444.498,-793.747"/>
   </g>
   <g font-style="normal" stroke-opacity="1" fill="none" stroke-linecap="round" font-weight="400" stroke-linejoin="bevel" font-family="Sans Serif" stroke="#000000" stroke-width="7" transform="matrix(1,0,0,1,987.738,1654.79)" font-size="31.75">
    <path vector-effect="none" fill-rule="evenodd" d="M-444.498,-920.746 L444.498,-920.746"/>
   </g>
   <g font-style="normal" stroke-opacity="1" fill="none" stroke-linecap="round" font-weight="400" stroke-linejoin="bevel" font-family="Sans Serif" stroke="#000000" stroke-width="7" transform="matrix(1,0,0,1,987.738,1654.79)" font-size="31.75">
    <path vector-effect="none" fill-rule="evenodd" d="M-444.498,-793.747 L444.498,-793.747"/>
   </g>
   <g font-style="normal" stroke-opacity="1" fill="none" stroke-linecap="round" font-weight="400" stroke-linejoin="bevel" font-family="Sans Serif" stroke="#000000" stroke-width="7" transform="matrix(1,0,0,1,987.738,1654.79)" font-size="31.75">
    <path vector-effect="none" fill-rule="evenodd" d="M-444.498,793.747 L-444.498,920.746"/>
   </g>
   <g font-style="normal" stroke-opacity="1" fill="none" stroke-linecap="round" font-weight="400" stroke-linejoin="bevel" font-family="Sans Serif" stroke="#000000" stroke-width="7" transform="matrix(1,0,0,1,987.738,1654.79)" font-size="31.75">
    <path vector-effect="none" fill-rule="evenodd" d="M444.498,793.747 L444.498,920.746"/>
   </g>
   <g font-style="normal" stroke-opacity="1" fill="none" stroke-linecap="round" font-weight="400" stroke-linejoin="bevel" font-family="Sans Serif" stroke="#000000" stroke-width="7" transform="matrix(1,0,0,1,987.738,1654.79)" font-size="31.75">
    <path vector-effect="none" fill-rule="evenodd" d="M-444.498,793.747 L444.498,793.747"/>
   </g>
   <g font-style="normal" stroke-opacity="1" fill="none" stroke-linecap="round" font-weight="400" stroke-linejoin="bevel" font-family="Sans Serif" stroke="#000000" stroke-width="7" transform="matrix(1,0,0,1,987.738,1654.79)" font-size="31.75">
    <path vector-effect="none" fill-rule="evenodd" d="M-444.498,920.746 L444.498,920.746"/>
   </g>
   <g font-style="normal" stroke-opacity="1" fill="none" stroke-linecap="round" font-weight="400" stroke-linejoin="bevel" font-family="Sans Serif" stroke="#000000" stroke-width="7" transform="matrix(1,0,0,1,987.738,1654.79)" font-size="31.75">
    <path vector-effect="none" fill-rule="evenodd" d="M404.811,761.997 L44.979,761.997"/>
   </g>
   <g font-style="normal" stroke-opacity="1" fill="none" stroke-linecap="round" font-weight="400" stroke-linejoin="bevel" font-family="Sans Serif" stroke="#000000" stroke-width="7" transform="matrix(1,0,0,1,987.738,1654.79)" font-size="31.75">
    <path vector-effect="none" fill-rule="evenodd" d="M404.811,-761.997 L404.811,761.997"/>
   </g>
   <g font-style="normal" stroke-opacity="1" fill="none" stroke-linecap="round" font-weight="400" stroke-linejoin="bevel" font-family="Sans Serif" stroke="#000000" stroke-width="7" transform="matrix(1,0,0,1,987.738,1654.79)" font-size="31.75">
    <path vector-effect="none" fill-rule="evenodd" d="M404.811,761.997 L396.895,754.081"/>
   </g>
   <g font-style="normal" stroke-opacity="1" fill="none" stroke-linecap="round" font-weight="400" stroke-linejoin="bevel" font-family="Sans Serif" stroke="#000000" stroke-width="7" transform="matrix(1,0,0,1,987.738,1654.79)" font-size="31.75">
    <path vector-effect="none" fill-rule="evenodd" d="M396.895,754.081 L52.8953,754.081"/>
   </g>
   <g font-style="normal" stroke-opacity="1" fill="none" stroke-linecap="round" font-weight="400" stroke-linejoin="bevel" font-family="Sans Serif" stroke="#000000" stroke-width="7" transform="matrix(1,0,0,1,987.738,1654.79)" font-size="31.75">
    <path vector-effect="none" fill-rule="evenodd" d="M44.979,761.997 L52.8953,754.081"/>
   </g>
   <g font-style="normal" stroke-opacity="1" fill="none" stroke-linecap="round" font-weight="400" stroke-linejoin="bevel" font-family="Sans Serif" stroke="#000000" stroke-width="7" transform="matrix(1,0,0,1,987.738,1654.79)" font-size="31.75">
    <path vector-effect="none" fill-rule="evenodd" d="M444.498,-793.747 L444.498,793.747"/>
   </g>
   <g font-style="normal" stroke-opacity="1" fill="none" stroke-linecap="round" font-weight="400" stroke-linejoin="bevel" font-family="Sans Serif" stroke="#000000" stroke-width="7" transform="matrix(1,0,0,1,987.738,1654.79)" font-size="31.75">
    <path vector-effect="none" fill-rule="evenodd" d="M444.498,-793.747 L5.29165,-793.747"/>
   </g>
   <g font-style="normal" stroke-opacity="1" fill="none" stroke-linecap="round" font-weight="400" stroke-linejoin="bevel" font-family="Sans Serif" stroke="#000000" stroke-width="7" transform="matrix(1,0,0,1,987.738,1654.79)" font-size="31.75">
    <path vector-effect="none" fill-rule="evenodd" d="M444.498,793.747 L5.29165,793.747"/>
   </g>
   <g font-style="normal" stroke-opacity="1" fill="none" stroke-linecap="round" font-weight="400" stroke-linejoin="bevel" font-family="Sans Serif" stroke="#000000" stroke-width="7" transform="matrix(1,0,0,1,987.738,1654.79)" font-size="31.75">
    <path vector-effect="none" fill-rule="evenodd" d="M5.29165,-793.747 L5.29165,793.747"/>
   </g>
   <g font-style="normal" stroke-opacity="1" fill="none" stroke-linecap="round" font-weight="400" stroke-linejoin="bevel" font-family="Sans Serif" stroke="#000000" stroke-width="7" transform="matrix(1,0,0,1,987.738,1654.79)" font-size="31.75">
    <path vector-effect="none" fill-rule="evenodd" d="M44.979,761.997 L44.979,-761.997"/>
   </g>
   <g font-style="normal" stroke-opacity="1" fill="none" stroke-linecap="round" font-weight="400" stroke-linejoin="bevel" font-family="Sans Serif" stroke="#000000" stroke-width="7" transform="matrix(1,0,0,1,987.738,1654.79)" font-size="31.75">
    <path vector-effect="none" fill-rule="evenodd" d="M44.979,-761.997 L404.811,-761.997"/>
   </g>
   <g font-style="normal" stroke-opacity="1" fill="none" stroke-linecap="round" font-weight="400" stroke-linejoin="bevel" font-family="Sans Serif" stroke="#000000" stroke-width="7" transform="matrix(1,0,0,1,987.738,1654.79)" font-size="31.75">
    <path vector-effect="none" fill-rule="evenodd" d="M404.811,-761.997 L396.895,-754.081"/>
   </g>
   <g font-style="normal" stroke-opacity="1" fill="none" stroke-linecap="round" font-weight="400" stroke-linejoin="bevel" font-family="Sans Serif" stroke="#000000" stroke-width="7" transform="matrix(1,0,0,1,987.738,1654.79)" font-size="31.75">
    <path vector-effect="none" fill-rule="evenodd" d="M396.895,-754.081 L396.895,754.081"/>
   </g>
   <g font-style="normal" stroke-opacity="1" fill="none" stroke-linecap="round" font-weight="400" stroke-linejoin="bevel" font-family="Sans Serif" stroke="#000000" stroke-width="7" transform="matrix(1,0,0,1,987.738,1654.79)" font-size="31.75">
    <path vector-effect="none" fill-rule="evenodd" d="M52.8953,754.081 L52.8953,-754.081"/>
   </g>
   <g font-style="normal" stroke-opacity="1" fill="none" stroke-linecap="round" font-weight="400" stroke-linejoin="bevel" font-family="Sans Serif" stroke="#000000" stroke-width="7" transform="matrix(1,0,0,1,987.738,1654.79)" font-size="31.75">
    <path vector-effect="none" fill-rule="evenodd" d="M52.8953,-754.081 L396.895,-754.081"/>
   </g>
   <g font-style="normal" stroke-opacity="1" fill="none" stroke-linecap="round" font-weight="400" stroke-linejoin="bevel" font-family="Sans Serif" stroke="#000000" stroke-width="7" transform="matrix(1,0,0,1,987.738,1654.79)" font-size="31.75">
    <path vector-effect="none" fill-rule="evenodd" d="M44.979,-761.997 L52.8953,-754.081"/>
   </g>
   <g font-style="normal" stroke-opacity="1" fill="none" stroke-linecap="round" font-weight="400" stroke-linejoin="bevel" font-family="Sans Serif" stroke="#000000" stroke-width="7" transform="matrix(1,0,0,1,987.738,1654.79)" font-size="31.75">
    <path vector-effect="none" fill-rule="evenodd" d="M293,-143.107 L81.3342,-143.107"/>
   </g>
   <g font-style="normal" stroke-opacity="1" fill="none" stroke-linecap="round" font-weight="400" stroke-linejoin="bevel" font-family="Sans Serif" stroke="#000000" stroke-width="7" transform="matrix(1,0,0,1,987.738,1654.79)" font-size="31.75">
    <path vector-effect="none" fill-rule="evenodd" d="M81.3342,-143.107 L81.3343,-524.105"/>
   </g>
   <g font-style="normal" stroke-opacity="1" fill="none" stroke-linecap="round" font-weight="400" stroke-linejoin="bevel" font-family="Sans Serif" stroke="#000000" stroke-width="7" transform="matrix(1,0,0,1,987.738,1654.79)" font-size="31.75">
    <path vector-effect="none" fill-rule="evenodd" d="M81.3343,-524.105 L293,-524.105"/>
   </g>
   <g font-style="normal" stroke-opacity="1" fill="none" stroke-linecap="round" font-weight="400" stroke-linejoin="bevel" font-family="Sans Serif" stroke="#000000" stroke-width="7" transform="matrix(1,0,0,1,987.738,1654.79)" font-size="31.75">
    <path vector-effect="none" fill-rule="evenodd" d="M293,-524.105 L293,-143.107"/>
   </g>
   <g font-style="normal" stroke-opacity="1" fill="none" stroke-linecap="round" font-weight="400" stroke-linejoin="bevel" font-family="Sans Serif" stroke="#000000" stroke-width="7" transform="matrix(1,0,0,1,987.738,1654.79)" font-size="31.75">
    <path vector-effect="none" fill-rule="evenodd" d="M12.3276,72.9461 L33.4942,72.9461"/>
   </g>
   <g font-style="normal" stroke-opacity="1" fill="none" stroke-linecap="round" font-weight="400" stroke-linejoin="bevel" font-family="Sans Serif" stroke="#000000" stroke-width="7" transform="matrix(1,0,0,1,987.738,1654.79)" font-size="31.75">
    <path vector-effect="none" fill-rule="evenodd" d="M12.3276,72.9461 L12.3276,-138.72"/>
   </g>
   <g font-style="normal" stroke-opacity="1" fill="none" stroke-linecap="round" font-weight="400" stroke-linejoin="bevel" font-family="Sans Serif" stroke="#000000" stroke-width="7" transform="matrix(1,0,0,1,987.738,1654.79)" font-size="31.75">
    <path vector-effect="none" fill-rule="evenodd" d="M12.3276,-138.72 L33.4942,-138.72"/>
   </g>
   <g font-style="normal" stroke-opacity="1" fill="none" stroke-linecap="round" font-weight="400" stroke-linejoin="bevel" font-family="Sans Serif" stroke="#000000" stroke-width="7" transform="matrix(1,0,0,1,987.738,1654.79)" font-size="31.75">
    <path vector-effect="none" fill-rule="evenodd" d="M-35.3578,72.9461 L-14.1912,72.9461"/>
   </g>
   <g font-style="normal" stroke-opacity="1" fill="none" stroke-linecap="round" font-weight="400" stroke-linejoin="bevel" font-family="Sans Serif" stroke="#000000" stroke-width="7" transform="matrix(1,0,0,1,987.738,1654.79)" font-size="31.75">
    <path vector-effect="none" fill-rule="evenodd" d="M-35.3578,72.9461 L-35.3578,-138.72"/>
   </g>
   <g font-style="normal" stroke-opacity="1" fill="none" stroke-linecap="round" font-weight="400" stroke-linejoin="bevel" font-family="Sans Serif" stroke="#000000" stroke-width="7" transform="matrix(1,0,0,1,987.738,1654.79)" font-size="31.75">
    <path vector-effect="none" fill-rule="evenodd" d="M-35.3578,-138.72 L-14.1912,-138.72"/>
   </g>
   <g font-style="normal" stroke-opacity="1" fill="none" stroke-linecap="round" font-weight="400" stroke-linejoin="bevel" font-family="Sans Serif" stroke="#000000" stroke-width="7" transform="matrix(1,0,0,1,987.738,1654.79)" font-size="31.75">
    <path vector-effect="none" fill-rule="evenodd" d="M33.4942,-138.72 L33.4942,72.9461"/>
   </g>
   <g font-style="normal" stroke-opacity="1" fill="none" stroke-linecap="round" font-weight="400" stroke-linejoin="bevel" font-family="Sans Serif" stroke="#000000" stroke-width="7" transform="matrix(1,0,0,1,987.738,1654.79)" font-size="31.75">
    <path vector-effect="none" fill-rule="evenodd" d="M-14.1912,-138.72 L-14.1912,72.9461"/>
   </g>
   <g font-style="normal" stroke-opacity="1" fill="none" stroke-linecap="square" font-weight="400" stroke-linejoin="bevel" font-family="Sans Serif" stroke="#000000" stroke-width="1" transform="matrix(1,0,0,1,987.738,1654.79)" font-size="31.75">
    <rect y="0" width="0" height="0" x="0"/>
   </g>
   <g font-style="normal" stroke-opacity="1" fill="none" stroke-linecap="round" font-weight="400" stroke-linejoin="bevel" font-family="Sans Serif" stroke="#000000" stroke-width="3.5" transform="matrix(1,0,0,1,987.738,1654.79)" font-size="31.75">
    <path vector-effect="none" fill-rule="evenodd" d="M-118.842,-1081.61 L-68.8418,-1081.61 L245.48,-642.521"/>
   </g>
   <g font-style="normal" stroke-opacity="1" fill="#000000" stroke-linecap="round" font-weight="400" stroke-linejoin="bevel" font-family="Sans Serif" stroke="#000000" stroke-width="3.5" fill-opacity="1" transform="matrix(0.582078,0.813133,-0.813133,0.582078,1233.22,1012.27)" font-size="31.75">
    <path vector-effect="none" fill-rule="evenodd" d="M0,0 L-50,-8.33333 L-50,8.33333 L0,0"/>
   </g>
   <g font-style="normal" stroke-opacity="1" fill="#ffffff" stroke-linecap="round" font-weight="400" stroke-linejoin="bevel" font-family="Sans Serif" stroke="#000000" stroke-width="3.5" fill-opacity="1" transform="matrix(1,0,0,1,987.738,1654.79)" font-size="31.75">
    <path vector-effect="none" fill-rule="evenodd" d="M-118.842,-1081.61 C-118.842,-1055.28 -140.188,-1033.93 -166.52,-1033.93 C-192.852,-1033.93 -214.199,-1055.28 -214.199,-1081.61 C-214.199,-1107.94 -192.852,-1129.29 -166.52,-1129.29 C-140.188,-1129.29 -118.842,-1107.94 -118.842,-1081.61 "/>
   </g>
   <g font-style="normal" stroke-opacity="1" fill="none" stroke-linecap="square" font-weight="400" stroke-linejoin="bevel" font-family="Sans Serif" stroke="#000000" stroke-width="1" transform="matrix(1,0,0,1,808.679,527.175)" font-size="31.75">
    <text font-style="normal" y="70" fill="#000000" xml:space="preserve" font-weight="400" font-family="osifont" stroke="none" fill-opacity="1" x="4" font-size="50">1</text>
   </g>
   <g font-style="normal" stroke-opacity="1" fill="none" stroke-linecap="square" font-weight="400" stroke-linejoin="bevel" font-family="Sans Serif" stroke="#000000" stroke-width="1" transform="matrix(1,0,0,1,987.738,1654.79)" font-size="31.75">
    <rect y="0" width="0" height="0" x="0"/>
   </g>
   <g font-style="normal" stroke-opacity="1" fill="none" stroke-linecap="round" font-weight="400" stroke-linejoin="bevel" font-family="Sans Serif" stroke="#000000" stroke-width="3.5" transform="matrix(1,0,0,1,987.738,1654.79)" font-size="31.75">
    <path vector-effect="none" fill-rule="evenodd" d="M556.179,-565.047 L506.179,-565.047 L194.096,-339.355"/>
   </g>
   <g font-style="normal" stroke-opacity="1" fill="#000000" stroke-linecap="round" font-weight="400" stroke-linejoin="bevel" font-family="Sans Serif" stroke="#000000" stroke-width="3.5" fill-opacity="1" transform="matrix(-0.810311,0.586,-0.586,-0.810311,1181.83,1315.43)" font-size="31.75">
    <path vector-effect="none" fill-rule="evenodd" d="M0,0 L-50,-8.33333 L-50,8.33333 L0,0"/>
   </g>
   <g font-style="normal" stroke-opacity="1" fill="#ffffff" stroke-linecap="round" font-weight="400" stroke-linejoin="bevel" font-family="Sans Serif" stroke="#000000" stroke-width="3.5" fill-opacity="1" transform="matrix(1,0,0,1,987.738,1654.79)" font-size="31.75">
    <path vector-effect="none" fill-rule="evenodd" d="M653.362,-565.047 C653.362,-538.211 631.607,-516.456 604.771,-516.456 C577.934,-516.456 556.179,-538.211 556.179,-565.047 C556.179,-591.884 577.934,-613.639 604.771,-613.639 C631.607,-613.639 653.362,-591.884 653.362,-565.047 "/>
   </g>
   <g font-style="normal" stroke-opacity="1" fill="none" stroke-linecap="square" font-weight="400" stroke-linejoin="bevel" font-family="Sans Serif" stroke="#000000" stroke-width="1" transform="matrix(1,0,0,1,1576.85,1043.74)" font-size="31.75">
    <text font-style="normal" y="70" fill="#000000" xml:space="preserve" font-weight="400" font-family="osifont" stroke="none" fill-opacity="1" x="4" font-size="50">2</text>
   </g>
   <g font-style="normal" stroke-opacity="1" fill="none" stroke-linecap="square" font-weight="400" stroke-linejoin="bevel" font-family="Sans Serif" stroke="#000000" stroke-width="1" transform="matrix(1,0,0,1,987.738,1654.79)" font-size="31.75">
    <rect y="0" width="0" height="0" x="0"/>
   </g>
   <g font-style="normal" stroke-opacity="1" fill="none" stroke-linecap="round" font-weight="400" stroke-linejoin="bevel" font-family="Sans Serif" stroke="#000000" stroke-width="1.3" transform="matrix(1,0,0,1,987.738,1654.79)" font-size="31.75">
    <path vector-effect="none" fill-rule="evenodd" d="M411.045,-1091.92 L361.045,-1091.92 L277.547,-849.178"/>
   </g>
   <g font-style="normal" stroke-opacity="1" fill="#000000" stroke-linecap="round" font-weight="400" stroke-linejoin="bevel" font-family="Sans Serif" stroke="#000000" stroke-width="1.3" fill-opacity="1" transform="matrix(-0.325269,0.945621,-0.945621,-0.325269,1265.28,805.609)" font-size="31.75">
    <path vector-effect="none" fill-rule="evenodd" d="M0,0 L-50,-8.33333 L-50,8.33333 L0,0"/>
   </g>
   <g font-style="normal" stroke-opacity="1" fill="#ffffff" stroke-linecap="round" font-weight="400" stroke-linejoin="bevel" font-family="Sans Serif" stroke="#000000" stroke-width="1.3" fill-opacity="1" transform="matrix(1,0,0,1,987.738,1654.79)" font-size="31.75">
    <path vector-effect="none" fill-rule="evenodd" d="M518.401,-1091.92 C518.401,-1062.28 494.368,-1038.25 464.723,-1038.25 C435.078,-1038.25 411.045,-1062.28 411.045,-1091.92 C411.045,-1121.57 435.078,-1145.6 464.723,-1145.6 C494.368,-1145.6 518.401,-1121.57 518.401,-1091.92 "/>
   </g>
   <g font-style="normal" stroke-opacity="1" fill="none" stroke-linecap="square" font-weight="400" stroke-linejoin="bevel" font-family="Sans Serif" stroke="#000000" stroke-width="1" transform="matrix(1,0,0,1,1424.8,516.863)" font-size="31.75">
    <text font-style="normal" y="70" fill="#000000" xml:space="preserve" font-weight="400" font-family="osifont" stroke="none" fill-opacity="1" x="4" font-size="50">23</text>
   </g>
  </g>
 </g>
</svg>
