<?xml version='1.0' encoding='UTF-8' standalone='no'?>
<svg xmlns:freecad="http://www.freecadweb.org/wiki/index.php?title=Svg_Namespace" xmlns:svg="http://www.w3.org/2000/svg" xmlns:dc="http://purl.org/dc/elements/1.1/" xmlns="http://www.w3.org/2000/svg" xmlns:rdf="http://www.w3.org/1999/02/22-rdf-syntax-ns#" width="210mm" height="297mm" viewBox="0 0 2100 2970" xmlns:xlink="http://www.w3.org/1999/xlink" baseProfile="tiny" xmlns:cc="http://creativecommons.org/ns#" version="1.2">
 <title>FreeCAD SVG Export</title>
 <desc>Drawing page: Page001 exported from FreeCAD document: patent_drawing_closed</desc>
 <defs/>
 <g id="Page001">
  <g stroke-linejoin="bevel" stroke-linecap="square" id="DrawingContent" fill="none" fill-rule="evenodd" stroke="black" stroke-width="1">
   <g font-size="31.75" font-weight="400" stroke-linejoin="bevel" stroke-linecap="square" font-family="Sans Serif" stroke-opacity="1" fill="none" font-style="normal" stroke="#000000" transform="matrix(1,0,0,1,1018.02,1671.12)" stroke-width="1">
    <rect y="0" x="0" width="0" height="0"/>
   </g>
   <g font-size="31.75" font-weight="400" fill-opacity="1" font-family="Sans Serif" fill="#ffffff" font-style="normal" stroke="none" transform="matrix(1,0,0,1,1018.02,1671.12)">
    <path fill-rule="evenodd" vector-effect="non-scaling-stroke" d="M533.4,-952.5 L533.4,952.5 L533.4,1104.9 L-533.4,1104.9 L-533.4,952.5 L-533.4,-952.5 L-533.4,952.5 L-533.4,-952.5 L-6.35,-952.5 L-533.4,-952.5 L-533.4,952.5 L-6.35,952.5 L-6.35,927.1 L-6.35,-952.5 L5.63753,-952.5 L533.4,-952.5 L533.4,-1104.9 L-533.4,-1104.9 L-533.4,-952.5 L-6.35,-952.5 L-533.4,-952.5 L-533.4,-1104.9 L533.4,-1104.9 L533.4,-952.5"/>
   </g>
   <g font-size="31.75" font-weight="400" stroke-linejoin="bevel" stroke-linecap="square" font-family="Sans Serif" stroke-opacity="1" fill="none" font-style="normal" stroke="#000000" transform="matrix(1,0,0,1,1018.02,1671.12)" stroke-width="1">
    <rect y="0" x="0" width="0" height="0"/>
   </g>
   <g font-size="31.75" font-weight="400" fill-opacity="1" font-family="Sans Serif" fill="#ffffff" font-style="normal" stroke="none" transform="matrix(1,0,0,1,1018.02,1671.12)">
    <path fill-rule="evenodd" vector-effect="non-scaling-stroke" d="M533.4,-952.5 L533.4,952.5 L5.99393,952.5 L533.4,952.5 L5.99393,952.5 L533.4,952.5 L533.4,1104.9 L-533.4,1104.9 L-533.4,952.5 L7.07543e-05,952.5 L5.99393,952.5 L6.35,927.1 L6.35001,-952.5 L533.4,-952.5"/>
   </g>
   <g font-size="31.75" font-weight="400" stroke-linejoin="bevel" stroke-linecap="square" font-family="Sans Serif" stroke-opacity="1" fill="none" font-style="normal" stroke="#000000" transform="matrix(1,0,0,1,1018.02,1671.12)" stroke-width="1">
    <rect y="0" x="0" width="0" height="0"/>
   </g>
   <g font-size="31.75" font-weight="400" fill-opacity="1" font-family="Sans Serif" fill="#ffffff" font-style="normal" stroke="none" transform="matrix(1,0,0,1,1018.02,1671.12)">
    <path fill-rule="evenodd" vector-effect="non-scaling-stroke" d="M485.775,-914.4 L485.775,914.4 L53.975,914.4 L53.975,-914.4 L485.775,-914.4"/>
   </g>
   <g font-size="31.75" font-weight="400" stroke-linejoin="bevel" stroke-linecap="square" font-family="Sans Serif" stroke-opacity="1" fill="none" font-style="normal" stroke="#000000" transform="matrix(1,0,0,1,1018.02,1671.12)" stroke-width="1">
    <rect y="0" x="0" width="0" height="0"/>
   </g>
   <g font-size="31.75" font-weight="400" fill-opacity="1" font-family="Sans Serif" fill="#ffffff" font-style="normal" stroke="none" transform="matrix(1,0,0,1,1018.02,1671.12)">
    <path fill-rule="evenodd" vector-effect="non-scaling-stroke" d="M-57.15,-914.4 L-57.15,914.4 L-488.95,914.4 L-488.95,-914.4 L-57.15,-914.4"/>
   </g>
   <g font-size="31.75" font-weight="400" stroke-linejoin="bevel" stroke-linecap="square" font-family="Sans Serif" stroke-opacity="1" fill="none" font-style="normal" stroke="#000000" transform="matrix(1,0,0,1,1018.02,1671.12)" stroke-width="1">
    <rect y="0" x="0" width="0" height="0"/>
   </g>
   <g font-size="31.75" font-weight="400" fill-opacity="1" font-family="Sans Serif" fill="#ffffff" font-style="normal" stroke="none" transform="matrix(1,0,0,1,1018.02,1671.12)">
    <path fill-rule="evenodd" vector-effect="non-scaling-stroke" d="M476.275,-904.9 L476.275,904.9 L63.4746,904.9 L63.4746,-904.9 L476.275,-904.9"/>
   </g>
   <g font-size="31.75" font-weight="400" stroke-linejoin="bevel" stroke-linecap="square" font-family="Sans Serif" stroke-opacity="1" fill="none" font-style="normal" stroke="#000000" transform="matrix(1,0,0,1,1018.02,1671.12)" stroke-width="1">
    <rect y="0" x="0" width="0" height="0"/>
   </g>
   <g font-size="31.75" font-weight="400" fill-opacity="1" font-family="Sans Serif" fill="#ffffff" font-style="normal" stroke="none" transform="matrix(1,0,0,1,1018.02,1671.12)">
    <path fill-rule="evenodd" vector-effect="non-scaling-stroke" d="M-66.6496,-904.9 L-66.6496,904.9 L-479.45,904.9 L-479.45,-904.9 L-66.6496,-904.9"/>
   </g>
   <g font-size="31.75" font-weight="400" stroke-linejoin="bevel" stroke-linecap="square" font-family="Sans Serif" stroke-opacity="1" fill="none" font-style="normal" stroke="#000000" transform="matrix(1,0,0,1,1018.02,1671.12)" stroke-width="1">
    <rect y="0" x="0" width="0" height="0"/>
   </g>
   <g font-size="31.75" font-weight="400" fill-opacity="1" font-family="Sans Serif" fill="#ffffff" font-style="normal" stroke="none" transform="matrix(1,0,0,1,1018.02,1671.12)">
    <path fill-rule="evenodd" vector-effect="non-scaling-stroke" d="M351.602,-628.929 L351.601,-171.729 L97.6015,-171.729 L97.6015,-628.929 L351.602,-628.929"/>
   </g>
   <g font-size="31.75" font-weight="400" stroke-linejoin="bevel" stroke-linecap="square" font-family="Sans Serif" stroke-opacity="1" fill="none" font-style="normal" stroke="#000000" transform="matrix(1,0,0,1,1018.02,1671.12)" stroke-width="1">
    <rect y="0" x="0" width="0" height="0"/>
   </g>
   <g font-size="31.75" font-weight="400" fill-opacity="1" font-family="Sans Serif" fill="#ffffff" font-style="normal" stroke="none" transform="matrix(1,0,0,1,1018.02,1671.12)">
    <path fill-rule="evenodd" vector-effect="non-scaling-stroke" d="M533.4,-952.5 L5.99377,-952.5 L6.35,927.1 L-6.35,927.1 L-6.35,-952.5 L5.99377,-952.5 L533.4,-952.5"/>
   </g>
   <g font-size="31.75" font-weight="400" stroke-linejoin="bevel" stroke-linecap="square" font-family="Sans Serif" stroke-opacity="1" fill="none" font-style="normal" stroke="#000000" transform="matrix(1,0,0,1,1018.02,1671.12)" stroke-width="1">
    <rect y="0" x="0" width="0" height="0"/>
   </g>
   <g font-size="31.75" font-weight="400" fill-opacity="1" font-family="Sans Serif" fill="#ffffff" font-style="normal" stroke="none" transform="matrix(1,0,0,1,1018.02,1671.12)">
    <path fill-rule="evenodd" vector-effect="non-scaling-stroke" d="M53.975,914.4 L63.4746,904.9 L63.4746,-904.9 L53.975,-914.4 L53.975,914.4"/>
   </g>
   <g font-size="31.75" font-weight="400" stroke-linejoin="bevel" stroke-linecap="square" font-family="Sans Serif" stroke-opacity="1" fill="none" font-style="normal" stroke="#000000" transform="matrix(1,0,0,1,1018.02,1671.12)" stroke-width="1">
    <rect y="0" x="0" width="0" height="0"/>
   </g>
   <g font-size="31.75" font-weight="400" fill-opacity="1" font-family="Sans Serif" fill="#ffffff" font-style="normal" stroke="none" transform="matrix(1,0,0,1,1018.02,1671.12)">
    <path fill-rule="evenodd" vector-effect="non-scaling-stroke" d="M-57.15,-914.4 L-57.15,914.4 L-66.6496,904.9 L-66.6496,-904.9 L-57.15,-914.4"/>
   </g>
   <g font-size="31.75" font-weight="400" stroke-linejoin="bevel" stroke-linecap="square" font-family="Sans Serif" stroke-opacity="1" fill="none" font-style="normal" stroke="#000000" transform="matrix(1,0,0,1,1018.02,1671.12)" stroke-width="1">
    <rect y="0" x="0" width="0" height="0"/>
   </g>
   <g font-size="31.75" font-weight="400" fill-opacity="1" font-family="Sans Serif" fill="#ffffff" font-style="normal" stroke="none" transform="matrix(1,0,0,1,1018.02,1671.12)">
    <path fill-rule="evenodd" vector-effect="non-scaling-stroke" d="M-488.95,914.4 L-479.45,904.9 L-479.45,-904.9 L-488.95,-914.4 L-488.95,914.4"/>
   </g>
   <g font-size="31.75" font-weight="400" stroke-linejoin="bevel" stroke-linecap="square" font-family="Sans Serif" stroke-opacity="1" fill="none" font-style="normal" stroke="#000000" transform="matrix(1,0,0,1,1018.02,1671.12)" stroke-width="1">
    <rect y="0" x="0" width="0" height="0"/>
   </g>
   <g font-size="31.75" font-weight="400" fill-opacity="1" font-family="Sans Serif" fill="#ffffff" font-style="normal" stroke="none" transform="matrix(1,0,0,1,1018.02,1671.12)">
    <path fill-rule="evenodd" vector-effect="non-scaling-stroke" d="M485.775,-914.4 L485.775,914.4 L476.275,904.9 L476.275,-904.9 L485.775,-914.4"/>
   </g>
   <g font-size="31.75" font-weight="400" stroke-linejoin="bevel" stroke-linecap="square" font-family="Sans Serif" stroke-opacity="1" fill="none" font-style="normal" stroke="#000000" transform="matrix(1,0,0,1,1018.02,1671.12)" stroke-width="1">
    <rect y="0" x="0" width="0" height="0"/>
   </g>
   <g font-size="31.75" font-weight="400" fill-opacity="1" font-family="Sans Serif" fill="#ffffff" font-style="normal" stroke="none" transform="matrix(1,0,0,1,1018.02,1671.12)">
    <path fill-rule="evenodd" vector-effect="non-scaling-stroke" d="M14.7932,87.5357 L14.7932,-166.464 L40.1932,-166.464 L40.1932,87.5357 L14.7932,87.5357"/>
   </g>
   <g font-size="31.75" font-weight="400" stroke-linejoin="bevel" stroke-linecap="square" font-family="Sans Serif" stroke-opacity="1" fill="none" font-style="normal" stroke="#000000" transform="matrix(1,0,0,1,1018.02,1671.12)" stroke-width="1">
    <rect y="0" x="0" width="0" height="0"/>
   </g>
   <g font-size="31.75" font-weight="400" fill-opacity="1" font-family="Sans Serif" fill="#ffffff" font-style="normal" stroke="none" transform="matrix(1,0,0,1,1018.02,1671.12)">
    <path fill-rule="evenodd" vector-effect="non-scaling-stroke" d="M-42.4295,87.5357 L-42.4295,-166.464 L-17.0295,-166.464 L-17.0295,87.5357 L-42.4295,87.5357"/>
   </g>
   <g font-size="31.75" font-weight="400" stroke-linejoin="bevel" stroke-linecap="square" font-family="Sans Serif" stroke-opacity="1" fill="none" font-style="normal" stroke="#000000" transform="matrix(1,0,0,1,1018.02,1671.12)" stroke-width="1">
    <rect y="0" x="0" width="0" height="0"/>
   </g>
   <g font-size="31.75" font-weight="400" fill-opacity="1" font-family="Sans Serif" fill="#ffffff" font-style="normal" stroke="none" transform="matrix(1,0,0,1,1018.02,1671.12)">
    <path fill-rule="evenodd" vector-effect="non-scaling-stroke" d="M485.775,914.4 L476.275,904.9 L63.4746,904.9 L53.975,914.4 L485.775,914.4"/>
   </g>
   <g font-size="31.75" font-weight="400" stroke-linejoin="bevel" stroke-linecap="square" font-family="Sans Serif" stroke-opacity="1" fill="none" font-style="normal" stroke="#000000" transform="matrix(1,0,0,1,1018.02,1671.12)" stroke-width="1">
    <rect y="0" x="0" width="0" height="0"/>
   </g>
   <g font-size="31.75" font-weight="400" fill-opacity="1" font-family="Sans Serif" fill="#ffffff" font-style="normal" stroke="none" transform="matrix(1,0,0,1,1018.02,1671.12)">
    <path fill-rule="evenodd" vector-effect="non-scaling-stroke" d="M-488.95,-914.4 L-57.15,-914.4 L-66.6496,-904.9 L-479.45,-904.9 L-488.95,-914.4"/>
   </g>
   <g font-size="31.75" font-weight="400" stroke-linejoin="bevel" stroke-linecap="square" font-family="Sans Serif" stroke-opacity="1" fill="none" font-style="normal" stroke="#000000" transform="matrix(1,0,0,1,1018.02,1671.12)" stroke-width="1">
    <rect y="0" x="0" width="0" height="0"/>
   </g>
   <g font-size="31.75" font-weight="400" fill-opacity="1" font-family="Sans Serif" fill="#ffffff" font-style="normal" stroke="none" transform="matrix(1,0,0,1,1018.02,1671.12)">
    <path fill-rule="evenodd" vector-effect="non-scaling-stroke" d="M-57.15,914.4 L-66.6496,904.9 L-479.45,904.9 L-488.95,914.4 L-57.15,914.4"/>
   </g>
   <g font-size="31.75" font-weight="400" stroke-linejoin="bevel" stroke-linecap="square" font-family="Sans Serif" stroke-opacity="1" fill="none" font-style="normal" stroke="#000000" transform="matrix(1,0,0,1,1018.02,1671.12)" stroke-width="1">
    <rect y="0" x="0" width="0" height="0"/>
   </g>
   <g font-size="31.75" font-weight="400" fill-opacity="1" font-family="Sans Serif" fill="#ffffff" font-style="normal" stroke="none" transform="matrix(1,0,0,1,1018.02,1671.12)">
    <path fill-rule="evenodd" vector-effect="non-scaling-stroke" d="M53.975,-914.4 L485.775,-914.4 L476.275,-904.9 L63.4746,-904.9 L53.975,-914.4"/>
   </g>
   <g font-size="31.75" font-weight="400" stroke-linejoin="bevel" stroke-linecap="square" font-family="Sans Serif" stroke-opacity="1" fill="none" font-style="normal" stroke="#000000" transform="matrix(1,0,0,1,1018.02,1671.12)" stroke-width="1">
    <rect y="0" x="0" width="0" height="0"/>
   </g>
   <g font-size="31.75" font-weight="400" fill-opacity="1" font-family="Sans Serif" fill="#ffffff" font-style="normal" stroke="none" transform="matrix(1,0,0,1,1018.02,1671.12)">
    <path fill-rule="evenodd" vector-effect="non-scaling-stroke" d="M-533.4,952.5 L-6.35,952.5 L-6.35,927.1 L6.35,927.1 L5.99393,952.5 L7.07543e-05,952.5 L-533.4,952.5"/>
   </g>
   <g font-size="31.75" font-weight="400" stroke-linejoin="bevel" stroke-linecap="square" font-family="Sans Serif" stroke-opacity="1" fill="none" font-style="normal" stroke="#000000" transform="matrix(1,0,0,1,1018.02,1671.12)" stroke-width="1">
    <rect y="0" x="0" width="0" height="0"/>
   </g>
   <g font-size="31.75" font-weight="400" stroke-linejoin="bevel" stroke-linecap="round" font-family="Sans Serif" stroke-opacity="1" fill="none" font-style="normal" stroke="#000000" transform="matrix(1,0,0,1,1018.02,1671.12)" stroke-width="7">
    <path fill-rule="evenodd" vector-effect="none" d="M7.07543e-05,952.5 L6.35,952.5"/>
   </g>
   <g font-size="31.75" font-weight="400" stroke-linejoin="bevel" stroke-linecap="round" font-family="Sans Serif" stroke-opacity="1" fill="none" font-style="normal" stroke="#000000" transform="matrix(1,0,0,1,1018.02,1671.12)" stroke-width="7">
    <path fill-rule="evenodd" vector-effect="none" d="M-533.4,-952.5 L-533.4,952.5"/>
   </g>
   <g font-size="31.75" font-weight="400" stroke-linejoin="bevel" stroke-linecap="round" font-family="Sans Serif" stroke-opacity="1" fill="none" font-style="normal" stroke="#000000" transform="matrix(1,0,0,1,1018.02,1671.12)" stroke-width="7">
    <path fill-rule="evenodd" vector-effect="none" d="M-6.35,927.1 L6.35,927.1"/>
   </g>
   <g font-size="31.75" font-weight="400" stroke-linejoin="bevel" stroke-linecap="round" font-family="Sans Serif" stroke-opacity="1" fill="none" font-style="normal" stroke="#000000" transform="matrix(1,0,0,1,1018.02,1671.12)" stroke-width="7">
    <path fill-rule="evenodd" vector-effect="none" d="M-57.15,914.4 L-488.95,914.4"/>
   </g>
   <g font-size="31.75" font-weight="400" stroke-linejoin="bevel" stroke-linecap="round" font-family="Sans Serif" stroke-opacity="1" fill="none" font-style="normal" stroke="#000000" transform="matrix(1,0,0,1,1018.02,1671.12)" stroke-width="7">
    <path fill-rule="evenodd" vector-effect="none" d="M-57.15,-914.4 L-57.15,914.4"/>
   </g>
   <g font-size="31.75" font-weight="400" stroke-linejoin="bevel" stroke-linecap="round" font-family="Sans Serif" stroke-opacity="1" fill="none" font-style="normal" stroke="#000000" transform="matrix(1,0,0,1,1018.02,1671.12)" stroke-width="7">
    <path fill-rule="evenodd" vector-effect="none" d="M-57.15,914.4 L-66.6496,904.9"/>
   </g>
   <g font-size="31.75" font-weight="400" stroke-linejoin="bevel" stroke-linecap="round" font-family="Sans Serif" stroke-opacity="1" fill="none" font-style="normal" stroke="#000000" transform="matrix(1,0,0,1,1018.02,1671.12)" stroke-width="7">
    <path fill-rule="evenodd" vector-effect="none" d="M-66.6496,904.9 L-479.45,904.9"/>
   </g>
   <g font-size="31.75" font-weight="400" stroke-linejoin="bevel" stroke-linecap="round" font-family="Sans Serif" stroke-opacity="1" fill="none" font-style="normal" stroke="#000000" transform="matrix(1,0,0,1,1018.02,1671.12)" stroke-width="7">
    <path fill-rule="evenodd" vector-effect="none" d="M-488.95,914.4 L-479.45,904.9"/>
   </g>
   <g font-size="31.75" font-weight="400" stroke-linejoin="bevel" stroke-linecap="round" font-family="Sans Serif" stroke-opacity="1" fill="none" font-style="normal" stroke="#000000" transform="matrix(1,0,0,1,1018.02,1671.12)" stroke-width="7">
    <path fill-rule="evenodd" vector-effect="none" d="M-6.35,-952.5 L-6.35,952.5"/>
   </g>
   <g font-size="31.75" font-weight="400" stroke-linejoin="bevel" stroke-linecap="round" font-family="Sans Serif" stroke-opacity="1" fill="none" font-style="normal" stroke="#000000" transform="matrix(1,0,0,1,1018.02,1671.12)" stroke-width="7">
    <path fill-rule="evenodd" vector-effect="none" d="M-6.35,-952.5 L-533.4,-952.5"/>
   </g>
   <g font-size="31.75" font-weight="400" stroke-linejoin="bevel" stroke-linecap="round" font-family="Sans Serif" stroke-opacity="1" fill="none" font-style="normal" stroke="#000000" transform="matrix(1,0,0,1,1018.02,1671.12)" stroke-width="7">
    <path fill-rule="evenodd" vector-effect="none" d="M-6.35,952.5 L-533.4,952.5"/>
   </g>
   <g font-size="31.75" font-weight="400" stroke-linejoin="bevel" stroke-linecap="round" font-family="Sans Serif" stroke-opacity="1" fill="none" font-style="normal" stroke="#000000" transform="matrix(1,0,0,1,1018.02,1671.12)" stroke-width="7">
    <path fill-rule="evenodd" vector-effect="none" d="M-533.4,-952.5 L-533.4,952.5"/>
   </g>
   <g font-size="31.75" font-weight="400" stroke-linejoin="bevel" stroke-linecap="round" font-family="Sans Serif" stroke-opacity="1" fill="none" font-style="normal" stroke="#000000" transform="matrix(1,0,0,1,1018.02,1671.12)" stroke-width="7">
    <path fill-rule="evenodd" vector-effect="none" d="M-488.95,914.4 L-488.95,-914.4"/>
   </g>
   <g font-size="31.75" font-weight="400" stroke-linejoin="bevel" stroke-linecap="round" font-family="Sans Serif" stroke-opacity="1" fill="none" font-style="normal" stroke="#000000" transform="matrix(1,0,0,1,1018.02,1671.12)" stroke-width="7">
    <path fill-rule="evenodd" vector-effect="none" d="M-488.95,-914.4 L-57.15,-914.4"/>
   </g>
   <g font-size="31.75" font-weight="400" stroke-linejoin="bevel" stroke-linecap="round" font-family="Sans Serif" stroke-opacity="1" fill="none" font-style="normal" stroke="#000000" transform="matrix(1,0,0,1,1018.02,1671.12)" stroke-width="7">
    <path fill-rule="evenodd" vector-effect="none" d="M-57.15,-914.4 L-66.6496,-904.9"/>
   </g>
   <g font-size="31.75" font-weight="400" stroke-linejoin="bevel" stroke-linecap="round" font-family="Sans Serif" stroke-opacity="1" fill="none" font-style="normal" stroke="#000000" transform="matrix(1,0,0,1,1018.02,1671.12)" stroke-width="7">
    <path fill-rule="evenodd" vector-effect="none" d="M-66.6496,-904.9 L-66.6496,904.9"/>
   </g>
   <g font-size="31.75" font-weight="400" stroke-linejoin="bevel" stroke-linecap="round" font-family="Sans Serif" stroke-opacity="1" fill="none" font-style="normal" stroke="#000000" transform="matrix(1,0,0,1,1018.02,1671.12)" stroke-width="7">
    <path fill-rule="evenodd" vector-effect="none" d="M-479.45,904.9 L-479.45,-904.9"/>
   </g>
   <g font-size="31.75" font-weight="400" stroke-linejoin="bevel" stroke-linecap="round" font-family="Sans Serif" stroke-opacity="1" fill="none" font-style="normal" stroke="#000000" transform="matrix(1,0,0,1,1018.02,1671.12)" stroke-width="7">
    <path fill-rule="evenodd" vector-effect="none" d="M-479.45,-904.9 L-66.6496,-904.9"/>
   </g>
   <g font-size="31.75" font-weight="400" stroke-linejoin="bevel" stroke-linecap="round" font-family="Sans Serif" stroke-opacity="1" fill="none" font-style="normal" stroke="#000000" transform="matrix(1,0,0,1,1018.02,1671.12)" stroke-width="7">
    <path fill-rule="evenodd" vector-effect="none" d="M-488.95,-914.4 L-479.45,-904.9"/>
   </g>
   <g font-size="31.75" font-weight="400" stroke-linejoin="bevel" stroke-linecap="round" font-family="Sans Serif" stroke-opacity="1" fill="none" font-style="normal" stroke="#000000" transform="matrix(1,0,0,1,1018.02,1671.12)" stroke-width="7">
    <path fill-rule="evenodd" vector-effect="none" d="M5.63753,-952.5 L-6.35,-952.5"/>
   </g>
   <g font-size="31.75" font-weight="400" stroke-linejoin="bevel" stroke-linecap="round" font-family="Sans Serif" stroke-opacity="1" fill="none" font-style="normal" stroke="#000000" transform="matrix(1,0,0,1,1018.02,1671.12)" stroke-width="7">
    <path fill-rule="evenodd" vector-effect="none" d="M6.35,952.5 L5.63787,952.5"/>
   </g>
   <g font-size="31.75" font-weight="400" stroke-linejoin="bevel" stroke-linecap="round" font-family="Sans Serif" stroke-opacity="1" fill="none" font-style="normal" stroke="#000000" transform="matrix(1,0,0,1,1018.02,1671.12)" stroke-width="7">
    <path fill-rule="evenodd" vector-effect="none" d="M-533.4,-1104.9 L-533.4,-952.5"/>
   </g>
   <g font-size="31.75" font-weight="400" stroke-linejoin="bevel" stroke-linecap="round" font-family="Sans Serif" stroke-opacity="1" fill="none" font-style="normal" stroke="#000000" transform="matrix(1,0,0,1,1018.02,1671.12)" stroke-width="7">
    <path fill-rule="evenodd" vector-effect="none" d="M533.4,-1104.9 L533.4,-952.5"/>
   </g>
   <g font-size="31.75" font-weight="400" stroke-linejoin="bevel" stroke-linecap="round" font-family="Sans Serif" stroke-opacity="1" fill="none" font-style="normal" stroke="#000000" transform="matrix(1,0,0,1,1018.02,1671.12)" stroke-width="7">
    <path fill-rule="evenodd" vector-effect="none" d="M-533.4,-1104.9 L533.4,-1104.9"/>
   </g>
   <g font-size="31.75" font-weight="400" stroke-linejoin="bevel" stroke-linecap="round" font-family="Sans Serif" stroke-opacity="1" fill="none" font-style="normal" stroke="#000000" transform="matrix(1,0,0,1,1018.02,1671.12)" stroke-width="7">
    <path fill-rule="evenodd" vector-effect="none" d="M-533.4,-952.5 L533.4,-952.5"/>
   </g>
   <g font-size="31.75" font-weight="400" stroke-linejoin="bevel" stroke-linecap="round" font-family="Sans Serif" stroke-opacity="1" fill="none" font-style="normal" stroke="#000000" transform="matrix(1,0,0,1,1018.02,1671.12)" stroke-width="7">
    <path fill-rule="evenodd" vector-effect="none" d="M-533.4,952.5 L-533.4,1104.9"/>
   </g>
   <g font-size="31.75" font-weight="400" stroke-linejoin="bevel" stroke-linecap="round" font-family="Sans Serif" stroke-opacity="1" fill="none" font-style="normal" stroke="#000000" transform="matrix(1,0,0,1,1018.02,1671.12)" stroke-width="7">
    <path fill-rule="evenodd" vector-effect="none" d="M533.4,952.5 L533.4,1104.9"/>
   </g>
   <g font-size="31.75" font-weight="400" stroke-linejoin="bevel" stroke-linecap="round" font-family="Sans Serif" stroke-opacity="1" fill="none" font-style="normal" stroke="#000000" transform="matrix(1,0,0,1,1018.02,1671.12)" stroke-width="7">
    <path fill-rule="evenodd" vector-effect="none" d="M-533.4,952.5 L533.4,952.5"/>
   </g>
   <g font-size="31.75" font-weight="400" stroke-linejoin="bevel" stroke-linecap="round" font-family="Sans Serif" stroke-opacity="1" fill="none" font-style="normal" stroke="#000000" transform="matrix(1,0,0,1,1018.02,1671.12)" stroke-width="7">
    <path fill-rule="evenodd" vector-effect="none" d="M-533.4,1104.9 L533.4,1104.9"/>
   </g>
   <g font-size="31.75" font-weight="400" stroke-linejoin="bevel" stroke-linecap="round" font-family="Sans Serif" stroke-opacity="1" fill="none" font-style="normal" stroke="#000000" transform="matrix(1,0,0,1,1018.02,1671.12)" stroke-width="7">
    <path fill-rule="evenodd" vector-effect="none" d="M485.775,914.4 L53.975,914.4"/>
   </g>
   <g font-size="31.75" font-weight="400" stroke-linejoin="bevel" stroke-linecap="round" font-family="Sans Serif" stroke-opacity="1" fill="none" font-style="normal" stroke="#000000" transform="matrix(1,0,0,1,1018.02,1671.12)" stroke-width="7">
    <path fill-rule="evenodd" vector-effect="none" d="M485.775,-914.4 L485.775,914.4"/>
   </g>
   <g font-size="31.75" font-weight="400" stroke-linejoin="bevel" stroke-linecap="round" font-family="Sans Serif" stroke-opacity="1" fill="none" font-style="normal" stroke="#000000" transform="matrix(1,0,0,1,1018.02,1671.12)" stroke-width="7">
    <path fill-rule="evenodd" vector-effect="none" d="M485.775,914.4 L476.275,904.9"/>
   </g>
   <g font-size="31.75" font-weight="400" stroke-linejoin="bevel" stroke-linecap="round" font-family="Sans Serif" stroke-opacity="1" fill="none" font-style="normal" stroke="#000000" transform="matrix(1,0,0,1,1018.02,1671.12)" stroke-width="7">
    <path fill-rule="evenodd" vector-effect="none" d="M476.275,904.9 L63.4746,904.9"/>
   </g>
   <g font-size="31.75" font-weight="400" stroke-linejoin="bevel" stroke-linecap="round" font-family="Sans Serif" stroke-opacity="1" fill="none" font-style="normal" stroke="#000000" transform="matrix(1,0,0,1,1018.02,1671.12)" stroke-width="7">
    <path fill-rule="evenodd" vector-effect="none" d="M53.975,914.4 L63.4746,904.9"/>
   </g>
   <g font-size="31.75" font-weight="400" stroke-linejoin="bevel" stroke-linecap="round" font-family="Sans Serif" stroke-opacity="1" fill="none" font-style="normal" stroke="#000000" transform="matrix(1,0,0,1,1018.02,1671.12)" stroke-width="7">
    <path fill-rule="evenodd" vector-effect="none" d="M533.4,-952.5 L533.4,952.5"/>
   </g>
   <g font-size="31.75" font-weight="400" stroke-linejoin="bevel" stroke-linecap="round" font-family="Sans Serif" stroke-opacity="1" fill="none" font-style="normal" stroke="#000000" transform="matrix(1,0,0,1,1018.02,1671.12)" stroke-width="7">
    <path fill-rule="evenodd" vector-effect="none" d="M533.4,-952.5 L6.35001,-952.5"/>
   </g>
   <g font-size="31.75" font-weight="400" stroke-linejoin="bevel" stroke-linecap="round" font-family="Sans Serif" stroke-opacity="1" fill="none" font-style="normal" stroke="#000000" transform="matrix(1,0,0,1,1018.02,1671.12)" stroke-width="7">
    <path fill-rule="evenodd" vector-effect="none" d="M533.4,952.5 L6.35,952.5"/>
   </g>
   <g font-size="31.75" font-weight="400" stroke-linejoin="bevel" stroke-linecap="round" font-family="Sans Serif" stroke-opacity="1" fill="none" font-style="normal" stroke="#000000" transform="matrix(1,0,0,1,1018.02,1671.12)" stroke-width="7">
    <path fill-rule="evenodd" vector-effect="none" d="M6.35001,-952.5 L6.35,952.5"/>
   </g>
   <g font-size="31.75" font-weight="400" stroke-linejoin="bevel" stroke-linecap="round" font-family="Sans Serif" stroke-opacity="1" fill="none" font-style="normal" stroke="#000000" transform="matrix(1,0,0,1,1018.02,1671.12)" stroke-width="7">
    <path fill-rule="evenodd" vector-effect="none" d="M53.975,914.4 L53.975,-914.4"/>
   </g>
   <g font-size="31.75" font-weight="400" stroke-linejoin="bevel" stroke-linecap="round" font-family="Sans Serif" stroke-opacity="1" fill="none" font-style="normal" stroke="#000000" transform="matrix(1,0,0,1,1018.02,1671.12)" stroke-width="7">
    <path fill-rule="evenodd" vector-effect="none" d="M53.975,-914.4 L485.775,-914.4"/>
   </g>
   <g font-size="31.75" font-weight="400" stroke-linejoin="bevel" stroke-linecap="round" font-family="Sans Serif" stroke-opacity="1" fill="none" font-style="normal" stroke="#000000" transform="matrix(1,0,0,1,1018.02,1671.12)" stroke-width="7">
    <path fill-rule="evenodd" vector-effect="none" d="M485.775,-914.4 L476.275,-904.9"/>
   </g>
   <g font-size="31.75" font-weight="400" stroke-linejoin="bevel" stroke-linecap="round" font-family="Sans Serif" stroke-opacity="1" fill="none" font-style="normal" stroke="#000000" transform="matrix(1,0,0,1,1018.02,1671.12)" stroke-width="7">
    <path fill-rule="evenodd" vector-effect="none" d="M476.275,-904.9 L476.275,904.9"/>
   </g>
   <g font-size="31.75" font-weight="400" stroke-linejoin="bevel" stroke-linecap="round" font-family="Sans Serif" stroke-opacity="1" fill="none" font-style="normal" stroke="#000000" transform="matrix(1,0,0,1,1018.02,1671.12)" stroke-width="7">
    <path fill-rule="evenodd" vector-effect="none" d="M63.4746,904.9 L63.4746,-904.9"/>
   </g>
   <g font-size="31.75" font-weight="400" stroke-linejoin="bevel" stroke-linecap="round" font-family="Sans Serif" stroke-opacity="1" fill="none" font-style="normal" stroke="#000000" transform="matrix(1,0,0,1,1018.02,1671.12)" stroke-width="7">
    <path fill-rule="evenodd" vector-effect="none" d="M63.4746,-904.9 L476.275,-904.9"/>
   </g>
   <g font-size="31.75" font-weight="400" stroke-linejoin="bevel" stroke-linecap="round" font-family="Sans Serif" stroke-opacity="1" fill="none" font-style="normal" stroke="#000000" transform="matrix(1,0,0,1,1018.02,1671.12)" stroke-width="7">
    <path fill-rule="evenodd" vector-effect="none" d="M53.975,-914.4 L63.4746,-904.9"/>
   </g>
   <g font-size="31.75" font-weight="400" stroke-linejoin="bevel" stroke-linecap="round" font-family="Sans Serif" stroke-opacity="1" fill="none" font-style="normal" stroke="#000000" transform="matrix(1,0,0,1,1018.02,1671.12)" stroke-width="7">
    <path fill-rule="evenodd" vector-effect="none" d="M351.601,-171.729 L97.6015,-171.729"/>
   </g>
   <g font-size="31.75" font-weight="400" stroke-linejoin="bevel" stroke-linecap="round" font-family="Sans Serif" stroke-opacity="1" fill="none" font-style="normal" stroke="#000000" transform="matrix(1,0,0,1,1018.02,1671.12)" stroke-width="7">
    <path fill-rule="evenodd" vector-effect="none" d="M97.6015,-171.729 L97.6015,-628.929"/>
   </g>
   <g font-size="31.75" font-weight="400" stroke-linejoin="bevel" stroke-linecap="round" font-family="Sans Serif" stroke-opacity="1" fill="none" font-style="normal" stroke="#000000" transform="matrix(1,0,0,1,1018.02,1671.12)" stroke-width="7">
    <path fill-rule="evenodd" vector-effect="none" d="M97.6015,-628.929 L351.602,-628.929"/>
   </g>
   <g font-size="31.75" font-weight="400" stroke-linejoin="bevel" stroke-linecap="round" font-family="Sans Serif" stroke-opacity="1" fill="none" font-style="normal" stroke="#000000" transform="matrix(1,0,0,1,1018.02,1671.12)" stroke-width="7">
    <path fill-rule="evenodd" vector-effect="none" d="M351.602,-628.929 L351.601,-171.729"/>
   </g>
   <g font-size="31.75" font-weight="400" stroke-linejoin="bevel" stroke-linecap="round" font-family="Sans Serif" stroke-opacity="1" fill="none" font-style="normal" stroke="#000000" transform="matrix(1,0,0,1,1018.02,1671.12)" stroke-width="7">
    <path fill-rule="evenodd" vector-effect="none" d="M14.7932,87.5357 L40.1932,87.5357"/>
   </g>
   <g font-size="31.75" font-weight="400" stroke-linejoin="bevel" stroke-linecap="round" font-family="Sans Serif" stroke-opacity="1" fill="none" font-style="normal" stroke="#000000" transform="matrix(1,0,0,1,1018.02,1671.12)" stroke-width="7">
    <path fill-rule="evenodd" vector-effect="none" d="M14.7932,87.5357 L14.7932,-166.464"/>
   </g>
   <g font-size="31.75" font-weight="400" stroke-linejoin="bevel" stroke-linecap="round" font-family="Sans Serif" stroke-opacity="1" fill="none" font-style="normal" stroke="#000000" transform="matrix(1,0,0,1,1018.02,1671.12)" stroke-width="7">
    <path fill-rule="evenodd" vector-effect="none" d="M14.7932,-166.464 L40.1932,-166.464"/>
   </g>
   <g font-size="31.75" font-weight="400" stroke-linejoin="bevel" stroke-linecap="round" font-family="Sans Serif" stroke-opacity="1" fill="none" font-style="normal" stroke="#000000" transform="matrix(1,0,0,1,1018.02,1671.12)" stroke-width="7">
    <path fill-rule="evenodd" vector-effect="none" d="M-42.4295,87.5357 L-17.0295,87.5357"/>
   </g>
   <g font-size="31.75" font-weight="400" stroke-linejoin="bevel" stroke-linecap="round" font-family="Sans Serif" stroke-opacity="1" fill="none" font-style="normal" stroke="#000000" transform="matrix(1,0,0,1,1018.02,1671.12)" stroke-width="7">
    <path fill-rule="evenodd" vector-effect="none" d="M-42.4295,87.5357 L-42.4295,-166.464"/>
   </g>
   <g font-size="31.75" font-weight="400" stroke-linejoin="bevel" stroke-linecap="round" font-family="Sans Serif" stroke-opacity="1" fill="none" font-style="normal" stroke="#000000" transform="matrix(1,0,0,1,1018.02,1671.12)" stroke-width="7">
    <path fill-rule="evenodd" vector-effect="none" d="M-42.4295,-166.464 L-17.0295,-166.464"/>
   </g>
   <g font-size="31.75" font-weight="400" stroke-linejoin="bevel" stroke-linecap="round" font-family="Sans Serif" stroke-opacity="1" fill="none" font-style="normal" stroke="#000000" transform="matrix(1,0,0,1,1018.02,1671.12)" stroke-width="7">
    <path fill-rule="evenodd" vector-effect="none" d="M40.1932,-166.464 L40.1932,87.5357"/>
   </g>
   <g font-size="31.75" font-weight="400" stroke-linejoin="bevel" stroke-linecap="round" font-family="Sans Serif" stroke-opacity="1" fill="none" font-style="normal" stroke="#000000" transform="matrix(1,0,0,1,1018.02,1671.12)" stroke-width="7">
    <path fill-rule="evenodd" vector-effect="none" d="M-17.0295,-166.464 L-17.0295,87.5357"/>
   </g>
   <g font-size="31.75" font-weight="400" stroke-linejoin="bevel" stroke-linecap="square" font-family="Sans Serif" stroke-opacity="1" fill="none" font-style="normal" stroke="#000000" transform="matrix(1,0,0,1,1018.02,1671.12)" stroke-width="1">
    <rect y="0" x="0" width="0" height="0"/>
   </g>
   <g font-size="31.75" font-weight="400" stroke-linejoin="bevel" stroke-linecap="round" font-family="Sans Serif" stroke-opacity="1" fill="none" font-style="normal" stroke="#000000" transform="matrix(1,0,0,1,1018.02,1671.12)" stroke-width="3.5">
    <path fill-rule="evenodd" vector-effect="none" d="M-287.14,-1300.79 L-237.14,-1300.79 L294.577,-771.029"/>
   </g>
   <g font-size="31.75" font-weight="400" stroke-linejoin="bevel" fill-opacity="1" stroke-linecap="round" font-family="Sans Serif" stroke-opacity="1" fill="#000000" font-style="normal" stroke="#000000" transform="matrix(0.70841,0.705801,-0.705801,0.70841,1312.6,900.092)" stroke-width="3.5">
    <path fill-rule="evenodd" vector-effect="none" d="M0,0 L-50,-8.33333 L-50,8.33333 L0,0"/>
   </g>
   <g font-size="31.75" font-weight="400" stroke-linejoin="bevel" fill-opacity="1" stroke-linecap="round" font-family="Sans Serif" stroke-opacity="1" fill="#ffffff" font-style="normal" stroke="#000000" transform="matrix(1,0,0,1,1018.02,1671.12)" stroke-width="3.5">
    <path fill-rule="evenodd" vector-effect="none" d="M-287.14,-1300.79 C-287.14,-1249.96 -328.344,-1208.76 -379.17,-1208.76 C-429.997,-1208.76 -471.2,-1249.96 -471.2,-1300.79 C-471.2,-1351.61 -429.997,-1392.82 -379.17,-1392.82 C-328.344,-1392.82 -287.14,-1351.61 -287.14,-1300.79 "/>
   </g>
   <g font-size="31.75" font-weight="400" stroke-linejoin="bevel" stroke-linecap="square" font-family="Sans Serif" stroke-opacity="1" fill="none" font-style="normal" stroke="#000000" transform="matrix(1,0,0,1,617.423,280.833)" stroke-width="1">
    <text font-size="102" font-weight="400" y="139" fill-opacity="1" font-family="osifont" fill="#000000" font-style="normal" stroke="none" x="4" xml:space="preserve">1</text>
   </g>
   <g font-size="31.75" font-weight="400" stroke-linejoin="bevel" stroke-linecap="square" font-family="Sans Serif" stroke-opacity="1" fill="none" font-style="normal" stroke="#000000" transform="matrix(1,0,0,1,1018.02,1671.12)" stroke-width="1">
    <rect y="0" x="0" width="0" height="0"/>
   </g>
   <g font-size="31.75" font-weight="400" stroke-linejoin="bevel" stroke-linecap="round" font-family="Sans Serif" stroke-opacity="1" fill="none" font-style="normal" stroke="#000000" transform="matrix(1,0,0,1,1018.02,1671.12)" stroke-width="3.5">
    <path fill-rule="evenodd" vector-effect="none" d="M649.743,-616.013 L599.743,-616.013 L232.916,-407.228"/>
   </g>
   <g font-size="31.75" font-weight="400" stroke-linejoin="bevel" fill-opacity="1" stroke-linecap="round" font-family="Sans Serif" stroke-opacity="1" fill="#000000" font-style="normal" stroke="#000000" transform="matrix(-0.86909,0.494655,-0.494655,-0.86909,1250.94,1263.89)" stroke-width="3.5">
    <path fill-rule="evenodd" vector-effect="none" d="M0,0 L-50,-8.33333 L-50,8.33333 L0,0"/>
   </g>
   <g font-size="31.75" font-weight="400" stroke-linejoin="bevel" fill-opacity="1" stroke-linecap="round" font-family="Sans Serif" stroke-opacity="1" fill="#ffffff" font-style="normal" stroke="#000000" transform="matrix(1,0,0,1,1018.02,1671.12)" stroke-width="3.5">
    <path fill-rule="evenodd" vector-effect="none" d="M837.168,-616.013 C837.168,-564.257 795.211,-522.3 743.455,-522.3 C691.699,-522.3 649.743,-564.257 649.743,-616.013 C649.743,-667.769 691.699,-709.725 743.455,-709.725 C795.211,-709.725 837.168,-667.769 837.168,-616.013 "/>
   </g>
   <g font-size="31.75" font-weight="400" stroke-linejoin="bevel" stroke-linecap="square" font-family="Sans Serif" stroke-opacity="1" fill="none" font-style="normal" stroke="#000000" transform="matrix(1,0,0,1,1733.7,965.608)" stroke-width="1">
    <text font-size="102" font-weight="400" y="139" fill-opacity="1" font-family="osifont" fill="#000000" font-style="normal" stroke="none" x="4" xml:space="preserve">2</text>
   </g>
   <g font-size="31.75" font-weight="400" stroke-linejoin="bevel" stroke-linecap="square" font-family="Sans Serif" stroke-opacity="1" fill="none" font-style="normal" stroke="#000000" transform="matrix(1,0,0,1,1018.02,1671.12)" stroke-width="1">
    <rect y="0" x="0" width="0" height="0"/>
   </g>
   <g font-size="31.75" font-weight="400" stroke-linejoin="bevel" stroke-linecap="round" font-family="Sans Serif" stroke-opacity="1" fill="none" font-style="normal" stroke="#000000" transform="matrix(1,0,0,1,1018.02,1671.12)" stroke-width="1.3">
    <path fill-rule="evenodd" vector-effect="none" d="M542.657,-1301.45 L492.657,-1301.45 L333.058,-1019.02"/>
   </g>
   <g font-size="31.75" font-weight="400" stroke-linejoin="bevel" fill-opacity="1" stroke-linecap="round" font-family="Sans Serif" stroke-opacity="1" fill="#000000" font-style="normal" stroke="#000000" transform="matrix(-0.491972,0.870611,-0.870611,-0.491972,1351.08,652.102)" stroke-width="1.3">
    <path fill-rule="evenodd" vector-effect="none" d="M0,0 L-50,-8.33333 L-50,8.33333 L0,0"/>
   </g>
   <g font-size="31.75" font-weight="400" stroke-linejoin="bevel" fill-opacity="1" stroke-linecap="round" font-family="Sans Serif" stroke-opacity="1" fill="#ffffff" font-style="normal" stroke="#000000" transform="matrix(1,0,0,1,1018.02,1671.12)" stroke-width="1.3">
    <path fill-rule="evenodd" vector-effect="none" d="M749.959,-1301.45 C749.959,-1244.21 703.553,-1197.8 646.308,-1197.8 C589.063,-1197.8 542.657,-1244.21 542.657,-1301.45 C542.657,-1358.7 589.063,-1405.1 646.308,-1405.1 C703.553,-1405.1 749.959,-1358.7 749.959,-1301.45 "/>
   </g>
   <g font-size="31.75" font-weight="400" stroke-linejoin="bevel" stroke-linecap="square" font-family="Sans Serif" stroke-opacity="1" fill="none" font-style="normal" stroke="#000000" transform="matrix(1,0,0,1,1612.05,280.169)" stroke-width="1">
    <text font-size="102" font-weight="400" y="139" fill-opacity="1" font-family="osifont" fill="#000000" font-style="normal" stroke="none" x="4" xml:space="preserve">23</text>
   </g>
  </g>
 </g>
</svg>
